<mxfile host="app.diagrams.net" agent="Mozilla/5.0 (Macintosh; Intel Mac OS X 10.15; rv:138.0) Gecko/20100101 Firefox/138.0" version="26.2.14">
  <diagram name="Страница — 1" id="EbDtQsXJ7jbSn_Czxea0">
    <mxGraphModel dx="1426" dy="1227" grid="1" gridSize="10" guides="1" tooltips="1" connect="1" arrows="1" fold="1" page="0" pageScale="1" pageWidth="827" pageHeight="1169" math="0" shadow="0">
      <root>
        <mxCell id="0" />
        <mxCell id="1" parent="0" />
        <UserObject label="" plantUmlData="{&quot;data&quot;:&quot;@startuml\nskinparam backgroundColor #FFFFFF\nskinparam sequence {\n  ActorBorderColor #5B9BD5\n  ActorBackgroundColor #EFF4FC\n  LifeLineBorderColor #70AD47\n  LifeLineBackgroundColor #E8F1DD\n  ArrowColor #4472C4\n  ArrowFontStyle bold\n}\n\nactor \&quot;Пользователь\&quot; as User #FFC000\nparticipant \&quot;Система поиска\&quot; as System #5B9BD5\nparticipant \&quot;База данных\&quot; as Database #70AD47\n\nautonumber\nUser -&gt; System: 1. Ввод параметров поиска\nactivate System\nSystem -&gt; Database: 2. Запрос недвижимости\nactivate Database\nDatabase --&gt; System: 3. Результаты (10 объектов)\ndeactivate Database\nSystem --&gt; User: 4. Отображение списка\ndeactivate System\n\nUser -&gt; System: 5. Применить фильтры\nactivate System\nSystem -&gt; Database: 6. Уточненный запрос\nactivate Database\nDatabase --&gt; System: 7. 3 подходящих объекта\ndeactivate Database\nSystem --&gt; User: 8. Обновленный список\ndeactivate System\n@enduml&quot;,&quot;format&quot;:&quot;svg&quot;}" id="0Xc3_VEsbhBvgeAr-Oqr-1">
          <mxCell style="shape=image;noLabel=1;verticalAlign=top;aspect=fixed;imageAspect=0;image=data:image/svg+xml,PHN2ZyB4bWxucz0iaHR0cDovL3d3dy53My5vcmcvMjAwMC9zdmciIHhtbG5zOnhsaW5rPSJodHRwOi8vd3d3LnczLm9yZy8xOTk5L3hsaW5rIiBjb250ZW50U3R5bGVUeXBlPSJ0ZXh0L2NzcyIgZGF0YS1kaWFncmFtLXR5cGU9IlNFUVVFTkNFIiBoZWlnaHQ9IjQwMnB4IiBwcmVzZXJ2ZUFzcGVjdFJhdGlvPSJub25lIiBzdHlsZT0id2lkdGg6NTE4cHg7aGVpZ2h0OjQwMnB4O2JhY2tncm91bmQ6I0ZGRkZGRjsiIHZlcnNpb249IjEuMSIgdmlld0JveD0iMCAwIDUxOCA0MDIiIHdpZHRoPSI1MThweCIgem9vbUFuZFBhbj0ibWFnbmlmeSI+PGRlZnMvPjxnPjxnPjx0aXRsZT4mIzEwNTc7JiMxMDgwOyYjMTA4OTsmIzEwOTA7JiMxMDc3OyYjMTA4NDsmIzEwNzI7ICYjMTA4NzsmIzEwODY7JiMxMDgwOyYjMTA4OTsmIzEwODI7JiMxMDcyOzwvdGl0bGU+PHJlY3QgZmlsbD0iI0U4RjFERCIgaGVpZ2h0PSI4My43NDIyIiBzdHlsZT0ic3Ryb2tlOiM3MEFENDc7c3Ryb2tlLXdpZHRoOjE7IiB3aWR0aD0iMTAiIHg9IjI0MiIgeT0iMTA5Ljg5ODQiLz48L2c+PGc+PHRpdGxlPiYjMTA1NzsmIzEwODA7JiMxMDg5OyYjMTA5MDsmIzEwNzc7JiMxMDg0OyYjMTA3MjsgJiMxMDg3OyYjMTA4NjsmIzEwODA7JiMxMDg5OyYjMTA4MjsmIzEwNzI7PC90aXRsZT48cmVjdCBmaWxsPSIjRThGMUREIiBoZWlnaHQ9IjgzLjc0MjIiIHN0eWxlPSJzdHJva2U6IzcwQUQ0NztzdHJva2Utd2lkdGg6MTsiIHdpZHRoPSIxMCIgeD0iMjQyIiB5PSIyMjEuNTU0NyIvPjwvZz48Zz48dGl0bGU+JiMxMDQxOyYjMTA3MjsmIzEwNzk7JiMxMDcyOyAmIzEwNzY7JiMxMDcyOyYjMTA4NTsmIzEwODU7JiMxMDk5OyYjMTA5Mzs8L3RpdGxlPjxyZWN0IGZpbGw9IiNFOEYxREQiIGhlaWdodD0iMjcuOTE0MSIgc3R5bGU9InN0cm9rZTojNzBBRDQ3O3N0cm9rZS13aWR0aDoxOyIgd2lkdGg9IjEwIiB4PSI0NjIiIHk9IjEzNy44MTI1Ii8+PC9nPjxnPjx0aXRsZT4mIzEwNDE7JiMxMDcyOyYjMTA3OTsmIzEwNzI7ICYjMTA3NjsmIzEwNzI7JiMxMDg1OyYjMTA4NTsmIzEwOTk7JiMxMDkzOzwvdGl0bGU+PHJlY3QgZmlsbD0iI0U4RjFERCIgaGVpZ2h0PSIyNy45MTQxIiBzdHlsZT0ic3Ryb2tlOiM3MEFENDc7c3Ryb2tlLXdpZHRoOjE7IiB3aWR0aD0iMTAiIHg9IjQ2MiIgeT0iMjQ5LjQ2ODgiLz48L2c+PGc+PHRpdGxlPiYjMTA1NTsmIzEwODY7JiMxMDgzOyYjMTEwMDsmIzEwNzk7JiMxMDg2OyYjMTA3NDsmIzEwNzI7JiMxMDkwOyYjMTA3NzsmIzEwODM7JiMxMTAwOzwvdGl0bGU+PHJlY3QgZmlsbD0iIzAwMDAwMCIgZmlsbC1vcGFjaXR5PSIwLjAwMDAwIiBoZWlnaHQ9IjI0My4zMTI1IiB3aWR0aD0iOCIgeD0iNDYiIHk9Ijc5Ljk4NDQiLz48bGluZSBzdHlsZT0ic3Ryb2tlOiM3MEFENDc7c3Ryb2tlLXdpZHRoOjAuNTtzdHJva2UtZGFzaGFycmF5OjUuMCw1LjA7IiB4MT0iNTAiIHgyPSI1MCIgeTE9Ijc5Ljk4NDQiIHkyPSIzMjMuMjk2OSIvPjwvZz48Zz48dGl0bGU+JiMxMDU3OyYjMTA4MDsmIzEwODk7JiMxMDkwOyYjMTA3NzsmIzEwODQ7JiMxMDcyOyAmIzEwODc7JiMxMDg2OyYjMTA4MDsmIzEwODk7JiMxMDgyOyYjMTA3Mjs8L3RpdGxlPjxyZWN0IGZpbGw9IiMwMDAwMDAiIGZpbGwtb3BhY2l0eT0iMC4wMDAwMCIgaGVpZ2h0PSIyNDMuMzEyNSIgd2lkdGg9IjgiIHg9IjI0MyIgeT0iNzkuOTg0NCIvPjxsaW5lIHN0eWxlPSJzdHJva2U6IzcwQUQ0NztzdHJva2Utd2lkdGg6MC41O3N0cm9rZS1kYXNoYXJyYXk6NS4wLDUuMDsiIHgxPSIyNDciIHgyPSIyNDciIHkxPSI3OS45ODQ0IiB5Mj0iMzIzLjI5NjkiLz48L2c+PGc+PHRpdGxlPiYjMTA0MTsmIzEwNzI7JiMxMDc5OyYjMTA3MjsgJiMxMDc2OyYjMTA3MjsmIzEwODU7JiMxMDg1OyYjMTA5OTsmIzEwOTM7PC90aXRsZT48cmVjdCBmaWxsPSIjMDAwMDAwIiBmaWxsLW9wYWNpdHk9IjAuMDAwMDAiIGhlaWdodD0iMjQzLjMxMjUiIHdpZHRoPSI4IiB4PSI0NjMiIHk9Ijc5Ljk4NDQiLz48bGluZSBzdHlsZT0ic3Ryb2tlOiM3MEFENDc7c3Ryb2tlLXdpZHRoOjAuNTtzdHJva2UtZGFzaGFycmF5OjUuMCw1LjA7IiB4MT0iNDY2LjUiIHgyPSI0NjYuNSIgeTE9Ijc5Ljk4NDQiIHkyPSIzMjMuMjk2OSIvPjwvZz48ZyBjbGFzcz0icGFydGljaXBhbnQgcGFydGljaXBhbnQtaGVhZCIgZGF0YS1wYXJ0aWNpcGFudD0iVXNlciI+PHRleHQgZmlsbD0iIzAwMDAwMCIgZm9udC1mYW1pbHk9InNhbnMtc2VyaWYiIGZvbnQtc2l6ZT0iMTQiIGxlbmd0aEFkanVzdD0ic3BhY2luZyIgdGV4dExlbmd0aD0iODQiIHg9IjUiIHk9Ijc4LjIzNDQiPiYjMTA1NTsmIzEwODY7JiMxMDgzOyYjMTEwMDsmIzEwNzk7JiMxMDg2OyYjMTA3NDsmIzEwNzI7JiMxMDkwOyYjMTA3NzsmIzEwODM7JiMxMTAwOzwvdGV4dD48ZWxsaXBzZSBjeD0iNTAiIGN5PSIxMy41IiBmaWxsPSIjRkZDMDAwIiByeD0iOCIgcnk9IjgiIHN0eWxlPSJzdHJva2U6IzVCOUJENTtzdHJva2Utd2lkdGg6MC41OyIvPjxwYXRoIGQ9Ik01MCwyMS41IEw1MCw0OC41IE0zNywyOS41IEw2MywyOS41IE01MCw0OC41IEwzNyw2My41IE01MCw0OC41IEw2Myw2My41IiBmaWxsPSJub25lIiBzdHlsZT0ic3Ryb2tlOiM1QjlCRDU7c3Ryb2tlLXdpZHRoOjAuNTsiLz48L2c+PGcgY2xhc3M9InBhcnRpY2lwYW50IHBhcnRpY2lwYW50LXRhaWwiIGRhdGEtcGFydGljaXBhbnQ9IlVzZXIiPjx0ZXh0IGZpbGw9IiMwMDAwMDAiIGZvbnQtZmFtaWx5PSJzYW5zLXNlcmlmIiBmb250LXNpemU9IjE0IiBsZW5ndGhBZGp1c3Q9InNwYWNpbmciIHRleHRMZW5ndGg9Ijg0IiB4PSI1IiB5PSIzMzUuNTMxMyI+JiMxMDU1OyYjMTA4NjsmIzEwODM7JiMxMTAwOyYjMTA3OTsmIzEwODY7JiMxMDc0OyYjMTA3MjsmIzEwOTA7JiMxMDc3OyYjMTA4MzsmIzExMDA7PC90ZXh0PjxlbGxpcHNlIGN4PSI1MCIgY3k9IjM0NS43ODEzIiBmaWxsPSIjRkZDMDAwIiByeD0iOCIgcnk9IjgiIHN0eWxlPSJzdHJva2U6IzVCOUJENTtzdHJva2Utd2lkdGg6MC41OyIvPjxwYXRoIGQ9Ik01MCwzNTMuNzgxMyBMNTAsMzgwLjc4MTMgTTM3LDM2MS43ODEzIEw2MywzNjEuNzgxMyBNNTAsMzgwLjc4MTMgTDM3LDM5NS43ODEzIE01MCwzODAuNzgxMyBMNjMsMzk1Ljc4MTMiIGZpbGw9Im5vbmUiIHN0eWxlPSJzdHJva2U6IzVCOUJENTtzdHJva2Utd2lkdGg6MC41OyIvPjwvZz48ZyBjbGFzcz0icGFydGljaXBhbnQgcGFydGljaXBhbnQtaGVhZCIgZGF0YS1wYXJ0aWNpcGFudD0iU3lzdGVtIj48cmVjdCBmaWxsPSIjNUI5QkQ1IiBoZWlnaHQ9IjI4Ljk4NDQiIHJ4PSIyLjUiIHJ5PSIyLjUiIHN0eWxlPSJzdHJva2U6IzE4MTgxODtzdHJva2Utd2lkdGg6MC41OyIgd2lkdGg9IjExMiIgeD0iMTkxIiB5PSI1MCIvPjx0ZXh0IGZpbGw9IiMwMDAwMDAiIGZvbnQtZmFtaWx5PSJzYW5zLXNlcmlmIiBmb250LXNpemU9IjE0IiBsZW5ndGhBZGp1c3Q9InNwYWNpbmciIHRleHRMZW5ndGg9Ijk4IiB4PSIxOTgiIHk9IjcwLjIzNDQiPiYjMTA1NzsmIzEwODA7JiMxMDg5OyYjMTA5MDsmIzEwNzc7JiMxMDg0OyYjMTA3MjsgJiMxMDg3OyYjMTA4NjsmIzEwODA7JiMxMDg5OyYjMTA4MjsmIzEwNzI7PC90ZXh0PjwvZz48ZyBjbGFzcz0icGFydGljaXBhbnQgcGFydGljaXBhbnQtdGFpbCIgZGF0YS1wYXJ0aWNpcGFudD0iU3lzdGVtIj48cmVjdCBmaWxsPSIjNUI5QkQ1IiBoZWlnaHQ9IjI4Ljk4NDQiIHJ4PSIyLjUiIHJ5PSIyLjUiIHN0eWxlPSJzdHJva2U6IzE4MTgxODtzdHJva2Utd2lkdGg6MC41OyIgd2lkdGg9IjExMiIgeD0iMTkxIiB5PSIzMjIuMjk2OSIvPjx0ZXh0IGZpbGw9IiMwMDAwMDAiIGZvbnQtZmFtaWx5PSJzYW5zLXNlcmlmIiBmb250LXNpemU9IjE0IiBsZW5ndGhBZGp1c3Q9InNwYWNpbmciIHRleHRMZW5ndGg9Ijk4IiB4PSIxOTgiIHk9IjM0Mi41MzEzIj4mIzEwNTc7JiMxMDgwOyYjMTA4OTsmIzEwOTA7JiMxMDc3OyYjMTA4NDsmIzEwNzI7ICYjMTA4NzsmIzEwODY7JiMxMDgwOyYjMTA4OTsmIzEwODI7JiMxMDcyOzwvdGV4dD48L2c+PGcgY2xhc3M9InBhcnRpY2lwYW50IHBhcnRpY2lwYW50LWhlYWQiIGRhdGEtcGFydGljaXBhbnQ9IkRhdGFiYXNlIj48cmVjdCBmaWxsPSIjNzBBRDQ3IiBoZWlnaHQ9IjI4Ljk4NDQiIHJ4PSIyLjUiIHJ5PSIyLjUiIHN0eWxlPSJzdHJva2U6IzE4MTgxODtzdHJva2Utd2lkdGg6MC41OyIgd2lkdGg9IjkxIiB4PSI0MjEuNSIgeT0iNTAiLz48dGV4dCBmaWxsPSIjMDAwMDAwIiBmb250LWZhbWlseT0ic2Fucy1zZXJpZiIgZm9udC1zaXplPSIxNCIgbGVuZ3RoQWRqdXN0PSJzcGFjaW5nIiB0ZXh0TGVuZ3RoPSI3NyIgeD0iNDI4LjUiIHk9IjcwLjIzNDQiPiYjMTA0MTsmIzEwNzI7JiMxMDc5OyYjMTA3MjsgJiMxMDc2OyYjMTA3MjsmIzEwODU7JiMxMDg1OyYjMTA5OTsmIzEwOTM7PC90ZXh0PjwvZz48ZyBjbGFzcz0icGFydGljaXBhbnQgcGFydGljaXBhbnQtdGFpbCIgZGF0YS1wYXJ0aWNpcGFudD0iRGF0YWJhc2UiPjxyZWN0IGZpbGw9IiM3MEFENDciIGhlaWdodD0iMjguOTg0NCIgcng9IjIuNSIgcnk9IjIuNSIgc3R5bGU9InN0cm9rZTojMTgxODE4O3N0cm9rZS13aWR0aDowLjU7IiB3aWR0aD0iOTEiIHg9IjQyMS41IiB5PSIzMjIuMjk2OSIvPjx0ZXh0IGZpbGw9IiMwMDAwMDAiIGZvbnQtZmFtaWx5PSJzYW5zLXNlcmlmIiBmb250LXNpemU9IjE0IiBsZW5ndGhBZGp1c3Q9InNwYWNpbmciIHRleHRMZW5ndGg9Ijc3IiB4PSI0MjguNSIgeT0iMzQyLjUzMTMiPiYjMTA0MTsmIzEwNzI7JiMxMDc5OyYjMTA3MjsgJiMxMDc2OyYjMTA3MjsmIzEwODU7JiMxMDg1OyYjMTA5OTsmIzEwOTM7PC90ZXh0PjwvZz48Zz48dGl0bGU+JiMxMDU3OyYjMTA4MDsmIzEwODk7JiMxMDkwOyYjMTA3NzsmIzEwODQ7JiMxMDcyOyAmIzEwODc7JiMxMDg2OyYjMTA4MDsmIzEwODk7JiMxMDgyOyYjMTA3Mjs8L3RpdGxlPjxyZWN0IGZpbGw9IiNFOEYxREQiIGhlaWdodD0iODMuNzQyMiIgc3R5bGU9InN0cm9rZTojNzBBRDQ3O3N0cm9rZS13aWR0aDoxOyIgd2lkdGg9IjEwIiB4PSIyNDIiIHk9IjEwOS44OTg0Ii8+PC9nPjxnPjx0aXRsZT4mIzEwNTc7JiMxMDgwOyYjMTA4OTsmIzEwOTA7JiMxMDc3OyYjMTA4NDsmIzEwNzI7ICYjMTA4NzsmIzEwODY7JiMxMDgwOyYjMTA4OTsmIzEwODI7JiMxMDcyOzwvdGl0bGU+PHJlY3QgZmlsbD0iI0U4RjFERCIgaGVpZ2h0PSI4My43NDIyIiBzdHlsZT0ic3Ryb2tlOiM3MEFENDc7c3Ryb2tlLXdpZHRoOjE7IiB3aWR0aD0iMTAiIHg9IjI0MiIgeT0iMjIxLjU1NDciLz48L2c+PGc+PHRpdGxlPiYjMTA0MTsmIzEwNzI7JiMxMDc5OyYjMTA3MjsgJiMxMDc2OyYjMTA3MjsmIzEwODU7JiMxMDg1OyYjMTA5OTsmIzEwOTM7PC90aXRsZT48cmVjdCBmaWxsPSIjRThGMUREIiBoZWlnaHQ9IjI3LjkxNDEiIHN0eWxlPSJzdHJva2U6IzcwQUQ0NztzdHJva2Utd2lkdGg6MTsiIHdpZHRoPSIxMCIgeD0iNDYyIiB5PSIxMzcuODEyNSIvPjwvZz48Zz48dGl0bGU+JiMxMDQxOyYjMTA3MjsmIzEwNzk7JiMxMDcyOyAmIzEwNzY7JiMxMDcyOyYjMTA4NTsmIzEwODU7JiMxMDk5OyYjMTA5Mzs8L3RpdGxlPjxyZWN0IGZpbGw9IiNFOEYxREQiIGhlaWdodD0iMjcuOTE0MSIgc3R5bGU9InN0cm9rZTojNzBBRDQ3O3N0cm9rZS13aWR0aDoxOyIgd2lkdGg9IjEwIiB4PSI0NjIiIHk9IjI0OS40Njg4Ii8+PC9nPjxnIGNsYXNzPSJtZXNzYWdlIiBkYXRhLXBhcnRpY2lwYW50LTE9IlVzZXIiIGRhdGEtcGFydGljaXBhbnQtMj0iU3lzdGVtIj48cG9seWdvbiBmaWxsPSIjNDQ3MkM0IiBwb2ludHM9IjIzMCwxMDUuODk4NCwyNDAsMTA5Ljg5ODQsMjMwLDExMy44OTg0LDIzNCwxMDkuODk4NCIgc3R5bGU9InN0cm9rZTojNDQ3MkM0O3N0cm9rZS13aWR0aDoxOyIvPjxsaW5lIHN0eWxlPSJzdHJva2U6IzQ0NzJDNDtzdHJva2Utd2lkdGg6MTsiIHgxPSI1MCIgeDI9IjIzNiIgeTE9IjEwOS44OTg0IiB5Mj0iMTA5Ljg5ODQiLz48dGV4dCBmaWxsPSIjMDAwMDAwIiBmb250LWZhbWlseT0ic2Fucy1zZXJpZiIgZm9udC1zaXplPSIxMyIgZm9udC13ZWlnaHQ9ImJvbGQiIGxlbmd0aEFkanVzdD0ic3BhY2luZyIgdGV4dExlbmd0aD0iNi41IiB4PSI1NyIgeT0iMTA2LjI3MzQiPjE8L3RleHQ+PHRleHQgZmlsbD0iIzAwMDAwMCIgZm9udC1mYW1pbHk9InNhbnMtc2VyaWYiIGZvbnQtc2l6ZT0iMTMiIGZvbnQtd2VpZ2h0PSJib2xkIiBsZW5ndGhBZGp1c3Q9InNwYWNpbmciIHRleHRMZW5ndGg9IjE2Mi41IiB4PSI2Ny41IiB5PSIxMDYuMjczNCI+MS4gJiMxMDQyOyYjMTA3NDsmIzEwODY7JiMxMDc2OyAmIzEwODc7JiMxMDcyOyYjMTA4ODsmIzEwNzI7JiMxMDg0OyYjMTA3NzsmIzEwOTA7JiMxMDg4OyYjMTA4NjsmIzEwNzQ7ICYjMTA4NzsmIzEwODY7JiMxMDgwOyYjMTA4OTsmIzEwODI7JiMxMDcyOzwvdGV4dD48L2c+PGcgY2xhc3M9Im1lc3NhZ2UiIGRhdGEtcGFydGljaXBhbnQtMT0iU3lzdGVtIiBkYXRhLXBhcnRpY2lwYW50LTI9IkRhdGFiYXNlIj48cG9seWdvbiBmaWxsPSIjNDQ3MkM0IiBwb2ludHM9IjQ1MCwxMzMuODEyNSw0NjAsMTM3LjgxMjUsNDUwLDE0MS44MTI1LDQ1NCwxMzcuODEyNSIgc3R5bGU9InN0cm9rZTojNDQ3MkM0O3N0cm9rZS13aWR0aDoxOyIvPjxsaW5lIHN0eWxlPSJzdHJva2U6IzQ0NzJDNDtzdHJva2Utd2lkdGg6MTsiIHgxPSIyNTIiIHgyPSI0NTYiIHkxPSIxMzcuODEyNSIgeTI9IjEzNy44MTI1Ii8+PHRleHQgZmlsbD0iIzAwMDAwMCIgZm9udC1mYW1pbHk9InNhbnMtc2VyaWYiIGZvbnQtc2l6ZT0iMTMiIGZvbnQtd2VpZ2h0PSJib2xkIiBsZW5ndGhBZGp1c3Q9InNwYWNpbmciIHRleHRMZW5ndGg9IjYuNSIgeD0iMjU5IiB5PSIxMzQuMTg3NSI+MjwvdGV4dD48dGV4dCBmaWxsPSIjMDAwMDAwIiBmb250LWZhbWlseT0ic2Fucy1zZXJpZiIgZm9udC1zaXplPSIxMyIgZm9udC13ZWlnaHQ9ImJvbGQiIGxlbmd0aEFkanVzdD0ic3BhY2luZyIgdGV4dExlbmd0aD0iMTQzIiB4PSIyNjkuNSIgeT0iMTM0LjE4NzUiPjIuICYjMTA0NzsmIzEwNzI7JiMxMDg3OyYjMTA4ODsmIzEwODY7JiMxMDg5OyAmIzEwODU7JiMxMDc3OyYjMTA3NjsmIzEwNzQ7JiMxMDgwOyYjMTA3ODsmIzEwODA7JiMxMDg0OyYjMTA4NjsmIzEwODk7JiMxMDkwOyYjMTA4MDs8L3RleHQ+PC9nPjxnIGNsYXNzPSJtZXNzYWdlIiBkYXRhLXBhcnRpY2lwYW50LTE9IkRhdGFiYXNlIiBkYXRhLXBhcnRpY2lwYW50LTI9IlN5c3RlbSI+PHBvbHlnb24gZmlsbD0iIzQ0NzJDNCIgcG9pbnRzPSIyNjMsMTYxLjcyNjYsMjUzLDE2NS43MjY2LDI2MywxNjkuNzI2NiwyNTksMTY1LjcyNjYiIHN0eWxlPSJzdHJva2U6IzQ0NzJDNDtzdHJva2Utd2lkdGg6MTsiLz48bGluZSBzdHlsZT0ic3Ryb2tlOiM0NDcyQzQ7c3Ryb2tlLXdpZHRoOjE7c3Ryb2tlLWRhc2hhcnJheToyLjAsMi4wOyIgeDE9IjI1NyIgeDI9IjQ2NiIgeTE9IjE2NS43MjY2IiB5Mj0iMTY1LjcyNjYiLz48dGV4dCBmaWxsPSIjMDAwMDAwIiBmb250LWZhbWlseT0ic2Fucy1zZXJpZiIgZm9udC1zaXplPSIxMyIgZm9udC13ZWlnaHQ9ImJvbGQiIGxlbmd0aEFkanVzdD0ic3BhY2luZyIgdGV4dExlbmd0aD0iNi41IiB4PSIyNjkiIHk9IjE2Mi4xMDE2Ij4zPC90ZXh0Pjx0ZXh0IGZpbGw9IiMwMDAwMDAiIGZvbnQtZmFtaWx5PSJzYW5zLXNlcmlmIiBmb250LXNpemU9IjEzIiBmb250LXdlaWdodD0iYm9sZCIgbGVuZ3RoQWRqdXN0PSJzcGFjaW5nIiB0ZXh0TGVuZ3RoPSIxNzUuNSIgeD0iMjc5LjUiIHk9IjE2Mi4xMDE2Ij4zLiAmIzEwNTY7JiMxMDc3OyYjMTA3OTsmIzEwOTE7JiMxMDgzOyYjMTEwMDsmIzEwOTA7JiMxMDcyOyYjMTA5MDsmIzEwOTk7ICgxMCAmIzEwODY7JiMxMDczOyYjMTA5ODsmIzEwNzc7JiMxMDgyOyYjMTA5MDsmIzEwODY7JiMxMDc0Oyk8L3RleHQ+PC9nPjxnIGNsYXNzPSJtZXNzYWdlIiBkYXRhLXBhcnRpY2lwYW50LTE9IlN5c3RlbSIgZGF0YS1wYXJ0aWNpcGFudC0yPSJVc2VyIj48cG9seWdvbiBmaWxsPSIjNDQ3MkM0IiBwb2ludHM9IjYxLDE4OS42NDA2LDUxLDE5My42NDA2LDYxLDE5Ny42NDA2LDU3LDE5My42NDA2IiBzdHlsZT0ic3Ryb2tlOiM0NDcyQzQ7c3Ryb2tlLXdpZHRoOjE7Ii8+PGxpbmUgc3R5bGU9InN0cm9rZTojNDQ3MkM0O3N0cm9rZS13aWR0aDoxO3N0cm9rZS1kYXNoYXJyYXk6Mi4wLDIuMDsiIHgxPSI1NSIgeDI9IjI0NiIgeTE9IjE5My42NDA2IiB5Mj0iMTkzLjY0MDYiLz48dGV4dCBmaWxsPSIjMDAwMDAwIiBmb250LWZhbWlseT0ic2Fucy1zZXJpZiIgZm9udC1zaXplPSIxMyIgZm9udC13ZWlnaHQ9ImJvbGQiIGxlbmd0aEFkanVzdD0ic3BhY2luZyIgdGV4dExlbmd0aD0iNi41IiB4PSI2NyIgeT0iMTkwLjAxNTYiPjQ8L3RleHQ+PHRleHQgZmlsbD0iIzAwMDAwMCIgZm9udC1mYW1pbHk9InNhbnMtc2VyaWYiIGZvbnQtc2l6ZT0iMTMiIGZvbnQtd2VpZ2h0PSJib2xkIiBsZW5ndGhBZGp1c3Q9InNwYWNpbmciIHRleHRMZW5ndGg9IjEzNi41IiB4PSI3Ny41IiB5PSIxOTAuMDE1NiI+NC4gJiMxMDU0OyYjMTA5MDsmIzEwODY7JiMxMDczOyYjMTA4ODsmIzEwNzI7JiMxMDc4OyYjMTA3NzsmIzEwODU7JiMxMDgwOyYjMTA3NzsgJiMxMDg5OyYjMTA4NzsmIzEwODA7JiMxMDg5OyYjMTA4MjsmIzEwNzI7PC90ZXh0PjwvZz48ZyBjbGFzcz0ibWVzc2FnZSIgZGF0YS1wYXJ0aWNpcGFudC0xPSJVc2VyIiBkYXRhLXBhcnRpY2lwYW50LTI9IlN5c3RlbSI+PHBvbHlnb24gZmlsbD0iIzQ0NzJDNCIgcG9pbnRzPSIyMzAsMjE3LjU1NDcsMjQwLDIyMS41NTQ3LDIzMCwyMjUuNTU0NywyMzQsMjIxLjU1NDciIHN0eWxlPSJzdHJva2U6IzQ0NzJDNDtzdHJva2Utd2lkdGg6MTsiLz48bGluZSBzdHlsZT0ic3Ryb2tlOiM0NDcyQzQ7c3Ryb2tlLXdpZHRoOjE7IiB4MT0iNTAiIHgyPSIyMzYiIHkxPSIyMjEuNTU0NyIgeTI9IjIyMS41NTQ3Ii8+PHRleHQgZmlsbD0iIzAwMDAwMCIgZm9udC1mYW1pbHk9InNhbnMtc2VyaWYiIGZvbnQtc2l6ZT0iMTMiIGZvbnQtd2VpZ2h0PSJib2xkIiBsZW5ndGhBZGp1c3Q9InNwYWNpbmciIHRleHRMZW5ndGg9IjYuNSIgeD0iNTciIHk9IjIxNy45Mjk3Ij41PC90ZXh0Pjx0ZXh0IGZpbGw9IiMwMDAwMDAiIGZvbnQtZmFtaWx5PSJzYW5zLXNlcmlmIiBmb250LXNpemU9IjEzIiBmb250LXdlaWdodD0iYm9sZCIgbGVuZ3RoQWRqdXN0PSJzcGFjaW5nIiB0ZXh0TGVuZ3RoPSIxMzAiIHg9IjY3LjUiIHk9IjIxNy45Mjk3Ij41LiAmIzEwNTU7JiMxMDg4OyYjMTA4MDsmIzEwODQ7JiMxMDc3OyYjMTA4NTsmIzEwODA7JiMxMDkwOyYjMTEwMDsgJiMxMDkyOyYjMTA4MDsmIzEwODM7JiMxMTAwOyYjMTA5MDsmIzEwODg7JiMxMDk5OzwvdGV4dD48L2c+PGcgY2xhc3M9Im1lc3NhZ2UiIGRhdGEtcGFydGljaXBhbnQtMT0iU3lzdGVtIiBkYXRhLXBhcnRpY2lwYW50LTI9IkRhdGFiYXNlIj48cG9seWdvbiBmaWxsPSIjNDQ3MkM0IiBwb2ludHM9IjQ1MCwyNDUuNDY4OCw0NjAsMjQ5LjQ2ODgsNDUwLDI1My40Njg4LDQ1NCwyNDkuNDY4OCIgc3R5bGU9InN0cm9rZTojNDQ3MkM0O3N0cm9rZS13aWR0aDoxOyIvPjxsaW5lIHN0eWxlPSJzdHJva2U6IzQ0NzJDNDtzdHJva2Utd2lkdGg6MTsiIHgxPSIyNTIiIHgyPSI0NTYiIHkxPSIyNDkuNDY4OCIgeTI9IjI0OS40Njg4Ii8+PHRleHQgZmlsbD0iIzAwMDAwMCIgZm9udC1mYW1pbHk9InNhbnMtc2VyaWYiIGZvbnQtc2l6ZT0iMTMiIGZvbnQtd2VpZ2h0PSJib2xkIiBsZW5ndGhBZGp1c3Q9InNwYWNpbmciIHRleHRMZW5ndGg9IjYuNSIgeD0iMjU5IiB5PSIyNDUuODQzOCI+NjwvdGV4dD48dGV4dCBmaWxsPSIjMDAwMDAwIiBmb250LWZhbWlseT0ic2Fucy1zZXJpZiIgZm9udC1zaXplPSIxMyIgZm9udC13ZWlnaHQ9ImJvbGQiIGxlbmd0aEFkanVzdD0ic3BhY2luZyIgdGV4dExlbmd0aD0iMTMwIiB4PSIyNjkuNSIgeT0iMjQ1Ljg0MzgiPjYuICYjMTA1OTsmIzEwOTA7JiMxMDg2OyYjMTA5NTsmIzEwODU7JiMxMDc3OyYjMTA4NTsmIzEwODU7JiMxMDk5OyYjMTA4MTsgJiMxMDc5OyYjMTA3MjsmIzEwODc7JiMxMDg4OyYjMTA4NjsmIzEwODk7PC90ZXh0PjwvZz48ZyBjbGFzcz0ibWVzc2FnZSIgZGF0YS1wYXJ0aWNpcGFudC0xPSJEYXRhYmFzZSIgZGF0YS1wYXJ0aWNpcGFudC0yPSJTeXN0ZW0iPjxwb2x5Z29uIGZpbGw9IiM0NDcyQzQiIHBvaW50cz0iMjYzLDI3My4zODI4LDI1MywyNzcuMzgyOCwyNjMsMjgxLjM4MjgsMjU5LDI3Ny4zODI4IiBzdHlsZT0ic3Ryb2tlOiM0NDcyQzQ7c3Ryb2tlLXdpZHRoOjE7Ii8+PGxpbmUgc3R5bGU9InN0cm9rZTojNDQ3MkM0O3N0cm9rZS13aWR0aDoxO3N0cm9rZS1kYXNoYXJyYXk6Mi4wLDIuMDsiIHgxPSIyNTciIHgyPSI0NjYiIHkxPSIyNzcuMzgyOCIgeTI9IjI3Ny4zODI4Ii8+PHRleHQgZmlsbD0iIzAwMDAwMCIgZm9udC1mYW1pbHk9InNhbnMtc2VyaWYiIGZvbnQtc2l6ZT0iMTMiIGZvbnQtd2VpZ2h0PSJib2xkIiBsZW5ndGhBZGp1c3Q9InNwYWNpbmciIHRleHRMZW5ndGg9IjYuNSIgeD0iMjY5IiB5PSIyNzMuNzU3OCI+NzwvdGV4dD48dGV4dCBmaWxsPSIjMDAwMDAwIiBmb250LWZhbWlseT0ic2Fucy1zZXJpZiIgZm9udC1zaXplPSIxMyIgZm9udC13ZWlnaHQ9ImJvbGQiIGxlbmd0aEFkanVzdD0ic3BhY2luZyIgdGV4dExlbmd0aD0iMTQ5LjUiIHg9IjI3OS41IiB5PSIyNzMuNzU3OCI+Ny4gMyAmIzEwODc7JiMxMDg2OyYjMTA3NjsmIzEwOTM7JiMxMDg2OyYjMTA3NjsmIzExMDM7JiMxMDk3OyYjMTA4MDsmIzEwOTM7ICYjMTA4NjsmIzEwNzM7JiMxMDk4OyYjMTA3NzsmIzEwODI7JiMxMDkwOyYjMTA3Mjs8L3RleHQ+PC9nPjxnIGNsYXNzPSJtZXNzYWdlIiBkYXRhLXBhcnRpY2lwYW50LTE9IlN5c3RlbSIgZGF0YS1wYXJ0aWNpcGFudC0yPSJVc2VyIj48cG9seWdvbiBmaWxsPSIjNDQ3MkM0IiBwb2ludHM9IjYxLDMwMS4yOTY5LDUxLDMwNS4yOTY5LDYxLDMwOS4yOTY5LDU3LDMwNS4yOTY5IiBzdHlsZT0ic3Ryb2tlOiM0NDcyQzQ7c3Ryb2tlLXdpZHRoOjE7Ii8+PGxpbmUgc3R5bGU9InN0cm9rZTojNDQ3MkM0O3N0cm9rZS13aWR0aDoxO3N0cm9rZS1kYXNoYXJyYXk6Mi4wLDIuMDsiIHgxPSI1NSIgeDI9IjI0NiIgeTE9IjMwNS4yOTY5IiB5Mj0iMzA1LjI5NjkiLz48dGV4dCBmaWxsPSIjMDAwMDAwIiBmb250LWZhbWlseT0ic2Fucy1zZXJpZiIgZm9udC1zaXplPSIxMyIgZm9udC13ZWlnaHQ9ImJvbGQiIGxlbmd0aEFkanVzdD0ic3BhY2luZyIgdGV4dExlbmd0aD0iNi41IiB4PSI2NyIgeT0iMzAxLjY3MTkiPjg8L3RleHQ+PHRleHQgZmlsbD0iIzAwMDAwMCIgZm9udC1mYW1pbHk9InNhbnMtc2VyaWYiIGZvbnQtc2l6ZT0iMTMiIGZvbnQtd2VpZ2h0PSJib2xkIiBsZW5ndGhBZGp1c3Q9InNwYWNpbmciIHRleHRMZW5ndGg9IjEzNi41IiB4PSI3Ny41IiB5PSIzMDEuNjcxOSI+OC4gJiMxMDU0OyYjMTA3MzsmIzEwODU7JiMxMDg2OyYjMTA3NDsmIzEwODM7JiMxMDc3OyYjMTA4NTsmIzEwODU7JiMxMDk5OyYjMTA4MTsgJiMxMDg5OyYjMTA4NzsmIzEwODA7JiMxMDg5OyYjMTA4NjsmIzEwODI7PC90ZXh0PjwvZz48IS0tU1JDPVtaUEJWUlg5MTZDTmx2b2MtcjFrelFCRXFZckdrSjBndUx4cmhWODAxSGhDZnhEUlRIVENPYXhQQVpEQWFxSGxsaENPTk0xZmVhVkJkNVJ2djh5LUNvbWZvMG1jbVYzRmRELVVTOEp4c1duQ1BvSlJMUFVGdVBISHNXY09yUjhLSEZWM2lJeUp2WmJZendnWVdlVVlqODNmZTk2NUsyUUVjWWhCem5TZ0pJZ3NPQl9zRlUtUHZoYlY1eWc3X0dYdHdXTGVIYnZvM2NialFOYnRKeHRrNU1pdFdlb1h5YW1yVGp4SFJUSFQzQm1vSWUtSXFmUVdVamZoWWRIM0lNQTRqbGtPUHQtakJsaUZ0M1FWd1dlVmN6blI5Yzl4N29nUWpFZXVaYTNKbjZfdzkzMUI4Vmw5OGR6bEQ0cXc5dnIxWm02REVoVkJlRDR2S0VxLSAtZ2x0MkFPdzNRZTI3QUt6ckp0VWpnWU9KTVBVbm9hQ0JzS2QyZURFa2dxWE9DempGQ3RJUDJabDROczV2bldEcFZnaEZHOWxtSzVfVzJMYk1KOWN1X2NrUGc0bWtDZUZXQkd1anFvdzh0bTJQNnUwLTl0V1Jta0NEWl9XTXh1YVA4bEJlN3NvWDVSZHB4SU03VS0zejBFOUVscFVMR2Vmd1RPeVU1WG8yalJ4LVpDS25uZDN4STNKTEVkUlg0YjBKbHFta2FELWplY19wdGU4bVhSU1g4VVN5SnhsNG9sQWtyTFM0d0hlQ2F5aW9PRXNJejBTQ2g1VHpmZGlSalZPT2U1XzZhbHZlMnhDTm9oXzlORjZZb2FxUkEtdEd0anp4Ni1Za19ScElkczJqa3pmTmtiYlAtd09peGlFSC1NbFZCdGRCb3ZoblVCc2lGbTAwXS0tPjwvZz48L3N2Zz4=;" vertex="1" parent="1">
            <mxGeometry x="10" y="-10" width="518" height="402" as="geometry" />
          </mxCell>
        </UserObject>
        <UserObject label="" plantUmlData="{&#xa;  &quot;data&quot;: &quot;@startuml\nskinparam backgroundColor #FFFFFF\nskinparam component {\n  BackgroundColor #EFF4FC\n  BorderColor #5B9BD5\n  ArrowColor #4472C4\n  InterfaceBackgroundColor #FFFFFF\n  InterfaceBorderColor #70AD47\n}\n\ncomponent \&quot;Поисковый модуль\&quot; as Search {\n  [SearchAPI] as search_if\n  [Фильтры] as filters\n}\n\ncomponent \&quot;Аутентификация\&quot; as Auth {\n  [AuthAPI] as auth_if\n}\n\ncomponent \&quot;База данных\&quot; as DB {\n  [PostgreSQL] as pg\n  [Кэш] as cache\n}\n\nSearch -right-&gt; DB : uses\\n&lt;jdbc&gt;\nAuth -down-&gt; DB : uses\\n&lt;jdbc&gt;\n\n[Пользователь] as User\nUser --&gt; search_if : HTTP\nUser --&gt; auth_if : HTTPS\n\nnote right of Search: Обрабатывает запросы\\nпоиска недвижимости\nnote left of DB: Хранит информацию\\nоб объектах\n@enduml&quot;,&#xa;  &quot;format&quot;: &quot;svg&quot;&#xa;}" id="0Xc3_VEsbhBvgeAr-Oqr-2">
          <mxCell style="shape=image;noLabel=1;verticalAlign=top;aspect=fixed;imageAspect=0;image=data:image/svg+xml,PHN2ZyB4bWxucz0iaHR0cDovL3d3dy53My5vcmcvMjAwMC9zdmciIHhtbG5zOnhsaW5rPSJodHRwOi8vd3d3LnczLm9yZy8xOTk5L3hsaW5rIiBjb250ZW50U3R5bGVUeXBlPSJ0ZXh0L2NzcyIgZGF0YS1kaWFncmFtLXR5cGU9IkRFU0NSSVBUSU9OIiBoZWlnaHQ9IjQ1OHB4IiBwcmVzZXJ2ZUFzcGVjdFJhdGlvPSJub25lIiBzdHlsZT0id2lkdGg6OTY1cHg7aGVpZ2h0OjQ1OHB4O2JhY2tncm91bmQ6I0ZGRkZGRjsiIHZlcnNpb249IjEuMSIgdmlld0JveD0iMCAwIDk2NSA0NTgiIHdpZHRoPSI5NjVweCIgem9vbUFuZFBhbj0ibWFnbmlmeSI+PGRlZnMvPjxnPjwhLS1jbHVzdGVyIFNlYXJjaC0tPjxnIGNsYXNzPSJjbHVzdGVyIiBkYXRhLWVudGl0eT0iU2VhcmNoIiBkYXRhLXNvdXJjZS1saW5lPSIxMCIgZGF0YS11aWQ9ImVudDAwMDIiIGlkPSJjbHVzdGVyX1NlYXJjaCI+PHJlY3QgZmlsbD0iI0VGRjRGQyIgaGVpZ2h0PSIxMjciIHJ4PSIyLjUiIHJ5PSIyLjUiIHN0eWxlPSJzdHJva2U6IzVCOUJENTtzdHJva2Utd2lkdGg6MTsiIHdpZHRoPSIyOTUiIHg9IjciIHk9IjMyNSIvPjxyZWN0IGZpbGw9IiNFRkY0RkMiIGhlaWdodD0iMTAiIHN0eWxlPSJzdHJva2U6IzVCOUJENTtzdHJva2Utd2lkdGg6MTsiIHdpZHRoPSIxNSIgeD0iMjgyIiB5PSIzMzAiLz48cmVjdCBmaWxsPSIjRUZGNEZDIiBoZWlnaHQ9IjIiIHN0eWxlPSJzdHJva2U6IzVCOUJENTtzdHJva2Utd2lkdGg6MTsiIHdpZHRoPSI0IiB4PSIyODAiIHk9IjMzMiIvPjxyZWN0IGZpbGw9IiNFRkY0RkMiIGhlaWdodD0iMiIgc3R5bGU9InN0cm9rZTojNUI5QkQ1O3N0cm9rZS13aWR0aDoxOyIgd2lkdGg9IjQiIHg9IjI4MCIgeT0iMzM2Ii8+PHRleHQgZmlsbD0iIzAwMDAwMCIgZm9udC1mYW1pbHk9InNhbnMtc2VyaWYiIGZvbnQtc2l6ZT0iMTQiIGZvbnQtd2VpZ2h0PSJib2xkIiBsZW5ndGhBZGp1c3Q9InNwYWNpbmciIHRleHRMZW5ndGg9IjExMiIgeD0iOTguNSIgeT0iMzUxLjIzNDQiPiYjMTA1NTsmIzEwODY7JiMxMDgwOyYjMTA4OTsmIzEwODI7JiMxMDg2OyYjMTA3NDsmIzEwOTk7JiMxMDgxOyAmIzEwODQ7JiMxMDg2OyYjMTA3NjsmIzEwOTE7JiMxMDgzOyYjMTEwMDs8L3RleHQ+PC9nPjwhLS1jbHVzdGVyIEF1dGgtLT48ZyBjbGFzcz0iY2x1c3RlciIgZGF0YS1lbnRpdHk9IkF1dGgiIGRhdGEtc291cmNlLWxpbmU9IjE1IiBkYXRhLXVpZD0iZW50MDAwNSIgaWQ9ImNsdXN0ZXJfQXV0aCI+PHJlY3QgZmlsbD0iI0VGRjRGQyIgaGVpZ2h0PSIxMjciIHJ4PSIyLjUiIHJ5PSIyLjUiIHN0eWxlPSJzdHJva2U6IzVCOUJENTtzdHJva2Utd2lkdGg6MTsiIHdpZHRoPSIxNTYiIHg9IjMyNiIgeT0iMTIxIi8+PHJlY3QgZmlsbD0iI0VGRjRGQyIgaGVpZ2h0PSIxMCIgc3R5bGU9InN0cm9rZTojNUI5QkQ1O3N0cm9rZS13aWR0aDoxOyIgd2lkdGg9IjE1IiB4PSI0NjIiIHk9IjEyNiIvPjxyZWN0IGZpbGw9IiNFRkY0RkMiIGhlaWdodD0iMiIgc3R5bGU9InN0cm9rZTojNUI5QkQ1O3N0cm9rZS13aWR0aDoxOyIgd2lkdGg9IjQiIHg9IjQ2MCIgeT0iMTI4Ii8+PHJlY3QgZmlsbD0iI0VGRjRGQyIgaGVpZ2h0PSIyIiBzdHlsZT0ic3Ryb2tlOiM1QjlCRDU7c3Ryb2tlLXdpZHRoOjE7IiB3aWR0aD0iNCIgeD0iNDYwIiB5PSIxMzIiLz48dGV4dCBmaWxsPSIjMDAwMDAwIiBmb250LWZhbWlseT0ic2Fucy1zZXJpZiIgZm9udC1zaXplPSIxNCIgZm9udC13ZWlnaHQ9ImJvbGQiIGxlbmd0aEFkanVzdD0ic3BhY2luZyIgdGV4dExlbmd0aD0iOTgiIHg9IjM1NSIgeT0iMTQ3LjIzNDQiPiYjMTA0MDsmIzEwOTE7JiMxMDkwOyYjMTA3NzsmIzEwODU7JiMxMDkwOyYjMTA4MDsmIzEwOTI7JiMxMDgwOyYjMTA4MjsmIzEwNzI7JiMxMDk0OyYjMTA4MDsmIzExMDM7PC90ZXh0PjwvZz48IS0tY2x1c3RlciBEQi0tPjxnIGNsYXNzPSJjbHVzdGVyIiBkYXRhLWVudGl0eT0iREIiIGRhdGEtc291cmNlLWxpbmU9IjE5IiBkYXRhLXVpZD0iZW50MDAwNyIgaWQ9ImNsdXN0ZXJfREIiPjxyZWN0IGZpbGw9IiNFRkY0RkMiIGhlaWdodD0iMTI3IiByeD0iMi41IiByeT0iMi41IiBzdHlsZT0ic3Ryb2tlOiM1QjlCRDU7c3Ryb2tlLXdpZHRoOjE7IiB3aWR0aD0iMjc0IiB4PSIzNDIiIHk9IjMyNSIvPjxyZWN0IGZpbGw9IiNFRkY0RkMiIGhlaWdodD0iMTAiIHN0eWxlPSJzdHJva2U6IzVCOUJENTtzdHJva2Utd2lkdGg6MTsiIHdpZHRoPSIxNSIgeD0iNTk2IiB5PSIzMzAiLz48cmVjdCBmaWxsPSIjRUZGNEZDIiBoZWlnaHQ9IjIiIHN0eWxlPSJzdHJva2U6IzVCOUJENTtzdHJva2Utd2lkdGg6MTsiIHdpZHRoPSI0IiB4PSI1OTQiIHk9IjMzMiIvPjxyZWN0IGZpbGw9IiNFRkY0RkMiIGhlaWdodD0iMiIgc3R5bGU9InN0cm9rZTojNUI5QkQ1O3N0cm9rZS13aWR0aDoxOyIgd2lkdGg9IjQiIHg9IjU5NCIgeT0iMzM2Ii8+PHRleHQgZmlsbD0iIzAwMDAwMCIgZm9udC1mYW1pbHk9InNhbnMtc2VyaWYiIGZvbnQtc2l6ZT0iMTQiIGZvbnQtd2VpZ2h0PSJib2xkIiBsZW5ndGhBZGp1c3Q9InNwYWNpbmciIHRleHRMZW5ndGg9Ijc3IiB4PSI0NDAuNSIgeT0iMzUxLjIzNDQiPiYjMTA0MTsmIzEwNzI7JiMxMDc5OyYjMTA3MjsgJiMxMDc2OyYjMTA3MjsmIzEwODU7JiMxMDg1OyYjMTA5OTsmIzEwOTM7PC90ZXh0PjwvZz48IS0tZW50aXR5IHNlYXJjaF9pZi0tPjxnIGNsYXNzPSJlbnRpdHkiIGRhdGEtZW50aXR5PSJzZWFyY2hfaWYiIGRhdGEtc291cmNlLWxpbmU9IjExIiBkYXRhLXVpZD0iZW50MDAwMyIgaWQ9ImVudGl0eV9zZWFyY2hfaWYiPjxyZWN0IGZpbGw9IiNFRkY0RkMiIGhlaWdodD0iNDQuOTg0NCIgcng9IjIuNSIgcnk9IjIuNSIgc3R5bGU9InN0cm9rZTojNUI5QkQ1O3N0cm9rZS13aWR0aDowLjU7IiB3aWR0aD0iMTAzIiB4PSIxNzQuNSIgeT0iMzgzIi8+PHJlY3QgZmlsbD0iI0VGRjRGQyIgaGVpZ2h0PSIxMCIgc3R5bGU9InN0cm9rZTojNUI5QkQ1O3N0cm9rZS13aWR0aDowLjU7IiB3aWR0aD0iMTUiIHg9IjI1Ny41IiB5PSIzODgiLz48cmVjdCBmaWxsPSIjRUZGNEZDIiBoZWlnaHQ9IjIiIHN0eWxlPSJzdHJva2U6IzVCOUJENTtzdHJva2Utd2lkdGg6MC41OyIgd2lkdGg9IjQiIHg9IjI1NS41IiB5PSIzOTAiLz48cmVjdCBmaWxsPSIjRUZGNEZDIiBoZWlnaHQ9IjIiIHN0eWxlPSJzdHJva2U6IzVCOUJENTtzdHJva2Utd2lkdGg6MC41OyIgd2lkdGg9IjQiIHg9IjI1NS41IiB5PSIzOTQiLz48dGV4dCBmaWxsPSIjMDAwMDAwIiBmb250LWZhbWlseT0ic2Fucy1zZXJpZiIgZm9udC1zaXplPSIxNCIgbGVuZ3RoQWRqdXN0PSJzcGFjaW5nIiB0ZXh0TGVuZ3RoPSI2MyIgeD0iMTg5LjUiIHk9IjQxNi4yMzQ0Ij5TZWFyY2hBUEk8L3RleHQ+PC9nPjwhLS1lbnRpdHkgZmlsdGVycy0tPjxnIGNsYXNzPSJlbnRpdHkiIGRhdGEtZW50aXR5PSJmaWx0ZXJzIiBkYXRhLXNvdXJjZS1saW5lPSIxMiIgZGF0YS11aWQ9ImVudDAwMDQiIGlkPSJlbnRpdHlfZmlsdGVycyI+PHJlY3QgZmlsbD0iI0VGRjRGQyIgaGVpZ2h0PSI0NC45ODQ0IiByeD0iMi41IiByeT0iMi41IiBzdHlsZT0ic3Ryb2tlOiM1QjlCRDU7c3Ryb2tlLXdpZHRoOjAuNTsiIHdpZHRoPSI4OSIgeD0iNTAuNSIgeT0iMzgzIi8+PHJlY3QgZmlsbD0iI0VGRjRGQyIgaGVpZ2h0PSIxMCIgc3R5bGU9InN0cm9rZTojNUI5QkQ1O3N0cm9rZS13aWR0aDowLjU7IiB3aWR0aD0iMTUiIHg9IjExOS41IiB5PSIzODgiLz48cmVjdCBmaWxsPSIjRUZGNEZDIiBoZWlnaHQ9IjIiIHN0eWxlPSJzdHJva2U6IzVCOUJENTtzdHJva2Utd2lkdGg6MC41OyIgd2lkdGg9IjQiIHg9IjExNy41IiB5PSIzOTAiLz48cmVjdCBmaWxsPSIjRUZGNEZDIiBoZWlnaHQ9IjIiIHN0eWxlPSJzdHJva2U6IzVCOUJENTtzdHJva2Utd2lkdGg6MC41OyIgd2lkdGg9IjQiIHg9IjExNy41IiB5PSIzOTQiLz48dGV4dCBmaWxsPSIjMDAwMDAwIiBmb250LWZhbWlseT0ic2Fucy1zZXJpZiIgZm9udC1zaXplPSIxNCIgbGVuZ3RoQWRqdXN0PSJzcGFjaW5nIiB0ZXh0TGVuZ3RoPSI0OSIgeD0iNjUuNSIgeT0iNDE2LjIzNDQiPiYjMTA2MDsmIzEwODA7JiMxMDgzOyYjMTEwMDsmIzEwOTA7JiMxMDg4OyYjMTA5OTs8L3RleHQ+PC9nPjwhLS1lbnRpdHkgYXV0aF9pZi0tPjxnIGNsYXNzPSJlbnRpdHkiIGRhdGEtZW50aXR5PSJhdXRoX2lmIiBkYXRhLXNvdXJjZS1saW5lPSIxNiIgZGF0YS11aWQ9ImVudDAwMDYiIGlkPSJlbnRpdHlfYXV0aF9pZiI+PHJlY3QgZmlsbD0iI0VGRjRGQyIgaGVpZ2h0PSI0NC45ODQ0IiByeD0iMi41IiByeT0iMi41IiBzdHlsZT0ic3Ryb2tlOiM1QjlCRDU7c3Ryb2tlLXdpZHRoOjAuNTsiIHdpZHRoPSI4OSIgeD0iMzY5LjUiIHk9IjE3OSIvPjxyZWN0IGZpbGw9IiNFRkY0RkMiIGhlaWdodD0iMTAiIHN0eWxlPSJzdHJva2U6IzVCOUJENTtzdHJva2Utd2lkdGg6MC41OyIgd2lkdGg9IjE1IiB4PSI0MzguNSIgeT0iMTg0Ii8+PHJlY3QgZmlsbD0iI0VGRjRGQyIgaGVpZ2h0PSIyIiBzdHlsZT0ic3Ryb2tlOiM1QjlCRDU7c3Ryb2tlLXdpZHRoOjAuNTsiIHdpZHRoPSI0IiB4PSI0MzYuNSIgeT0iMTg2Ii8+PHJlY3QgZmlsbD0iI0VGRjRGQyIgaGVpZ2h0PSIyIiBzdHlsZT0ic3Ryb2tlOiM1QjlCRDU7c3Ryb2tlLXdpZHRoOjAuNTsiIHdpZHRoPSI0IiB4PSI0MzYuNSIgeT0iMTkwIi8+PHRleHQgZmlsbD0iIzAwMDAwMCIgZm9udC1mYW1pbHk9InNhbnMtc2VyaWYiIGZvbnQtc2l6ZT0iMTQiIGxlbmd0aEFkanVzdD0ic3BhY2luZyIgdGV4dExlbmd0aD0iNDkiIHg9IjM4NC41IiB5PSIyMTIuMjM0NCI+QXV0aEFQSTwvdGV4dD48L2c+PCEtLWVudGl0eSBwZy0tPjxnIGNsYXNzPSJlbnRpdHkiIGRhdGEtZW50aXR5PSJwZyIgZGF0YS1zb3VyY2UtbGluZT0iMjAiIGRhdGEtdWlkPSJlbnQwMDA4IiBpZD0iZW50aXR5X3BnIj48cmVjdCBmaWxsPSIjRUZGNEZDIiBoZWlnaHQ9IjQ0Ljk4NDQiIHJ4PSIyLjUiIHJ5PSIyLjUiIHN0eWxlPSJzdHJva2U6IzVCOUJENTtzdHJva2Utd2lkdGg6MC41OyIgd2lkdGg9IjExMCIgeD0iNDgyIiB5PSIzODMiLz48cmVjdCBmaWxsPSIjRUZGNEZDIiBoZWlnaHQ9IjEwIiBzdHlsZT0ic3Ryb2tlOiM1QjlCRDU7c3Ryb2tlLXdpZHRoOjAuNTsiIHdpZHRoPSIxNSIgeD0iNTcyIiB5PSIzODgiLz48cmVjdCBmaWxsPSIjRUZGNEZDIiBoZWlnaHQ9IjIiIHN0eWxlPSJzdHJva2U6IzVCOUJENTtzdHJva2Utd2lkdGg6MC41OyIgd2lkdGg9IjQiIHg9IjU3MCIgeT0iMzkwIi8+PHJlY3QgZmlsbD0iI0VGRjRGQyIgaGVpZ2h0PSIyIiBzdHlsZT0ic3Ryb2tlOiM1QjlCRDU7c3Ryb2tlLXdpZHRoOjAuNTsiIHdpZHRoPSI0IiB4PSI1NzAiIHk9IjM5NCIvPjx0ZXh0IGZpbGw9IiMwMDAwMDAiIGZvbnQtZmFtaWx5PSJzYW5zLXNlcmlmIiBmb250LXNpemU9IjE0IiBsZW5ndGhBZGp1c3Q9InNwYWNpbmciIHRleHRMZW5ndGg9IjcwIiB4PSI0OTciIHk9IjQxNi4yMzQ0Ij5Qb3N0Z3JlU1FMPC90ZXh0PjwvZz48IS0tZW50aXR5IGNhY2hlLS0+PGcgY2xhc3M9ImVudGl0eSIgZGF0YS1lbnRpdHk9ImNhY2hlIiBkYXRhLXNvdXJjZS1saW5lPSIyMSIgZGF0YS11aWQ9ImVudDAwMDkiIGlkPSJlbnRpdHlfY2FjaGUiPjxyZWN0IGZpbGw9IiNFRkY0RkMiIGhlaWdodD0iNDQuOTg0NCIgcng9IjIuNSIgcnk9IjIuNSIgc3R5bGU9InN0cm9rZTojNUI5QkQ1O3N0cm9rZS13aWR0aDowLjU7IiB3aWR0aD0iNjEiIHg9IjM4NS41IiB5PSIzODMiLz48cmVjdCBmaWxsPSIjRUZGNEZDIiBoZWlnaHQ9IjEwIiBzdHlsZT0ic3Ryb2tlOiM1QjlCRDU7c3Ryb2tlLXdpZHRoOjAuNTsiIHdpZHRoPSIxNSIgeD0iNDI2LjUiIHk9IjM4OCIvPjxyZWN0IGZpbGw9IiNFRkY0RkMiIGhlaWdodD0iMiIgc3R5bGU9InN0cm9rZTojNUI5QkQ1O3N0cm9rZS13aWR0aDowLjU7IiB3aWR0aD0iNCIgeD0iNDI0LjUiIHk9IjM5MCIvPjxyZWN0IGZpbGw9IiNFRkY0RkMiIGhlaWdodD0iMiIgc3R5bGU9InN0cm9rZTojNUI5QkQ1O3N0cm9rZS13aWR0aDowLjU7IiB3aWR0aD0iNCIgeD0iNDI0LjUiIHk9IjM5NCIvPjx0ZXh0IGZpbGw9IiMwMDAwMDAiIGZvbnQtZmFtaWx5PSJzYW5zLXNlcmlmIiBmb250LXNpemU9IjE0IiBsZW5ndGhBZGp1c3Q9InNwYWNpbmciIHRleHRMZW5ndGg9IjIxIiB4PSI0MDAuNSIgeT0iNDE2LjIzNDQiPiYjMTA1MDsmIzExMDE7JiMxMDk2OzwvdGV4dD48L2c+PCEtLWVudGl0eSBVc2VyLS0+PGcgY2xhc3M9ImVudGl0eSIgZGF0YS1lbnRpdHk9IlVzZXIiIGRhdGEtc291cmNlLWxpbmU9IjI3IiBkYXRhLXVpZD0iZW50MDAxMiIgaWQ9ImVudGl0eV9Vc2VyIj48cmVjdCBmaWxsPSIjRUZGNEZDIiBoZWlnaHQ9IjQ0Ljk4NDQiIHJ4PSIyLjUiIHJ5PSIyLjUiIHN0eWxlPSJzdHJva2U6IzVCOUJENTtzdHJva2Utd2lkdGg6MC41OyIgd2lkdGg9IjEyNCIgeD0iMjA4IiB5PSI3Ii8+PHJlY3QgZmlsbD0iI0VGRjRGQyIgaGVpZ2h0PSIxMCIgc3R5bGU9InN0cm9rZTojNUI5QkQ1O3N0cm9rZS13aWR0aDowLjU7IiB3aWR0aD0iMTUiIHg9IjMxMiIgeT0iMTIiLz48cmVjdCBmaWxsPSIjRUZGNEZDIiBoZWlnaHQ9IjIiIHN0eWxlPSJzdHJva2U6IzVCOUJENTtzdHJva2Utd2lkdGg6MC41OyIgd2lkdGg9IjQiIHg9IjMxMCIgeT0iMTQiLz48cmVjdCBmaWxsPSIjRUZGNEZDIiBoZWlnaHQ9IjIiIHN0eWxlPSJzdHJva2U6IzVCOUJENTtzdHJva2Utd2lkdGg6MC41OyIgd2lkdGg9IjQiIHg9IjMxMCIgeT0iMTgiLz48dGV4dCBmaWxsPSIjMDAwMDAwIiBmb250LWZhbWlseT0ic2Fucy1zZXJpZiIgZm9udC1zaXplPSIxNCIgbGVuZ3RoQWRqdXN0PSJzcGFjaW5nIiB0ZXh0TGVuZ3RoPSI4NCIgeD0iMjIzIiB5PSI0MC4yMzQ0Ij4mIzEwNTU7JiMxMDg2OyYjMTA4MzsmIzExMDA7JiMxMDc5OyYjMTA4NjsmIzEwNzQ7JiMxMDcyOyYjMTA5MDsmIzEwNzc7JiMxMDgzOyYjMTEwMDs8L3RleHQ+PC9nPjxnIGNsYXNzPSJlbnRpdHkiIGRhdGEtZW50aXR5PSJHTU4xNSIgZGF0YS1zb3VyY2UtbGluZT0iMzEiIGRhdGEtdWlkPSJlbnQwMDE2IiBpZD0iZW50aXR5X0dNTjE1Ij48cGF0aCBkPSJNNjQwLjUsMzg2LjUgTDY0MC41LDQyNC4zMjgxIEw3OTEuNSw0MjQuMzI4MSBMNzkxLjUsMzk2LjUgTDc4MS41LDM4Ni41IEw2NDAuNSwzODYuNSIgZmlsbD0iI0ZFRkZERCIgc3R5bGU9InN0cm9rZTojMTgxODE4O3N0cm9rZS13aWR0aDowLjU7Ii8+PHBhdGggZD0iTTc4MS41LDM4Ni41IEw3ODEuNSwzOTYuNSBMNzkxLjUsMzk2LjUgTDc4MS41LDM4Ni41IiBmaWxsPSIjRkVGRkREIiBzdHlsZT0ic3Ryb2tlOiMxODE4MTg7c3Ryb2tlLXdpZHRoOjE7Ii8+PHRleHQgZmlsbD0iIzAwMDAwMCIgZm9udC1mYW1pbHk9InNhbnMtc2VyaWYiIGZvbnQtc2l6ZT0iMTMiIGxlbmd0aEFkanVzdD0ic3BhY2luZyIgdGV4dExlbmd0aD0iMTMwIiB4PSI2NDYuNSIgeT0iNDAzLjc4OTEiPiYjMTA1NDsmIzEwNzM7JiMxMDg4OyYjMTA3MjsmIzEwNzM7JiMxMDcyOyYjMTA5MDsmIzEwOTk7JiMxMDc0OyYjMTA3MjsmIzEwNzc7JiMxMDkwOyAmIzEwNzk7JiMxMDcyOyYjMTA4NzsmIzEwODg7JiMxMDg2OyYjMTA4OTsmIzEwOTk7PC90ZXh0Pjx0ZXh0IGZpbGw9IiMwMDAwMDAiIGZvbnQtZmFtaWx5PSJzYW5zLXNlcmlmIiBmb250LXNpemU9IjEzIiBsZW5ndGhBZGp1c3Q9InNwYWNpbmciIHRleHRMZW5ndGg9IjEyMy41IiB4PSI2NDYuNSIgeT0iNDE3LjcwMzEiPiYjMTA4NzsmIzEwODY7JiMxMDgwOyYjMTA4OTsmIzEwODI7JiMxMDcyOyAmIzEwODU7JiMxMDc3OyYjMTA3NjsmIzEwNzQ7JiMxMDgwOyYjMTA3ODsmIzEwODA7JiMxMDg0OyYjMTA4NjsmIzEwODk7JiMxMDkwOyYjMTA4MDs8L3RleHQ+PC9nPjxnIGNsYXNzPSJlbnRpdHkiIGRhdGEtZW50aXR5PSJHTU4xOCIgZGF0YS1zb3VyY2UtbGluZT0iMzIiIGRhdGEtdWlkPSJlbnQwMDE5IiBpZD0iZW50aXR5X0dNTjE4Ij48cGF0aCBkPSJNODI3LDM4Ni41IEw4MjcsNDI0LjMyODEgTDk1OC41LDQyNC4zMjgxIEw5NTguNSwzOTYuNSBMOTQ4LjUsMzg2LjUgTDgyNywzODYuNSIgZmlsbD0iI0ZFRkZERCIgc3R5bGU9InN0cm9rZTojMTgxODE4O3N0cm9rZS13aWR0aDowLjU7Ii8+PHBhdGggZD0iTTk0OC41LDM4Ni41IEw5NDguNSwzOTYuNSBMOTU4LjUsMzk2LjUgTDk0OC41LDM4Ni41IiBmaWxsPSIjRkVGRkREIiBzdHlsZT0ic3Ryb2tlOiMxODE4MTg7c3Ryb2tlLXdpZHRoOjE7Ii8+PHRleHQgZmlsbD0iIzAwMDAwMCIgZm9udC1mYW1pbHk9InNhbnMtc2VyaWYiIGZvbnQtc2l6ZT0iMTMiIGxlbmd0aEFkanVzdD0ic3BhY2luZyIgdGV4dExlbmd0aD0iMTEwLjUiIHg9IjgzMyIgeT0iNDAzLjc4OTEiPiYjMTA2MTsmIzEwODg7JiMxMDcyOyYjMTA4NTsmIzEwODA7JiMxMDkwOyAmIzEwODA7JiMxMDg1OyYjMTA5MjsmIzEwODY7JiMxMDg4OyYjMTA4NDsmIzEwNzI7JiMxMDk0OyYjMTA4MDsmIzExMDI7PC90ZXh0Pjx0ZXh0IGZpbGw9IiMwMDAwMDAiIGZvbnQtZmFtaWx5PSJzYW5zLXNlcmlmIiBmb250LXNpemU9IjEzIiBsZW5ndGhBZGp1c3Q9InNwYWNpbmciIHRleHRMZW5ndGg9IjcxLjUiIHg9IjgzMyIgeT0iNDE3LjcwMzEiPiYjMTA4NjsmIzEwNzM7ICYjMTA4NjsmIzEwNzM7JiMxMDk4OyYjMTA3NzsmIzEwODI7JiMxMDkwOyYjMTA3MjsmIzEwOTM7PC90ZXh0PjwvZz48IS0tbGluayBTZWFyY2ggdG8gREItLT48ZyBjbGFzcz0ibGluayIgZGF0YS1lbnRpdHktMT0iU2VhcmNoIiBkYXRhLWVudGl0eS0yPSJEQiIgZGF0YS1zb3VyY2UtbGluZT0iMjQiIGRhdGEtdWlkPSJsbmsxMCIgaWQ9ImxpbmtfU2VhcmNoX0RCIj48cGF0aCBkPSJNMjMuODgwMywzMjQuOTA4IEMyNC40NjEyLDMyMy43NDA2IDI1LjA3MiwzMjIuNTkwMyAyNS43MTM4LDMyMS40NTk1IEMyOC4yODE0LDMxNi45MzY2IDMxLjM0NzUsMzEyLjcyNzUgMzUsMzA5IEM1MS43NSwyOTEuOSA2My43MiwyOTkuNjggODcuNSwyOTcgQzE1Mi4wOSwyODkuNzEgMjc0LjUyLDI5Ni44MiAyOTQsMzA5IEMzMTQuMDQsMzIxLjUyNSAzMjcuNjk3NSwzNDQuMDI3NSAzMzYuNTA1LDM2NC4xNTM3IEMzMzcuNjA1OSwzNjYuNjY5NSAzMzguNjMxMSwzNjkuMTQ4MiAzMzkuNTgzNSwzNzEuNTY1NiBDMzQwLjA1OTYsMzcyLjc3NDMgMzQwLjUxNzYsMzczLjk2NzcgMzQwLjk1NzgsMzc1LjE0MjcgQzM0MS4xNzc5LDM3NS43MzAyIDM0MS4zOTM1LDM3Ni4zMTMyIDM0MS42MDQ3LDM3Ni44OTEyIEMzNDEuNzEwMywzNzcuMTgwMiAzMzkuNzc3NiwzNzEuODI0NCAzMzkuODgxLDM3Mi4xMTA4IiBmaWxsPSJub25lIiBpZD0iU2VhcmNoLXRvLURCIiBzdHlsZT0ic3Ryb2tlOiM0NDcyQzQ7c3Ryb2tlLXdpZHRoOjE7Ii8+PHBvbHlnb24gZmlsbD0iIzQ0NzJDNCIgcG9pbnRzPSIzNDEuOTE4MiwzNzcuNzU0NCwzNDIuNjI0NywzNjcuOTMwOSwzNDAuMjIwNSwzNzMuMDUxNCwzMzUuMSwzNzAuNjQ3MiwzNDEuOTE4MiwzNzcuNzU0NCIgc3R5bGU9InN0cm9rZTojNDQ3MkM0O3N0cm9rZS13aWR0aDoxOyIvPjx0ZXh0IGZpbGw9IiMwMDAwMDAiIGZvbnQtZmFtaWx5PSJzYW5zLXNlcmlmIiBmb250LXNpemU9IjEzIiBsZW5ndGhBZGp1c3Q9InNwYWNpbmciIHRleHRMZW5ndGg9IjI2IiB4PSI5NSIgeT0iMjg1LjI4OTEiPnVzZXM8L3RleHQ+PHRleHQgZmlsbD0iIzAwMDAwMCIgZm9udC1mYW1pbHk9InNhbnMtc2VyaWYiIGZvbnQtc2l6ZT0iMTMiIGxlbmd0aEFkanVzdD0ic3BhY2luZyIgdGV4dExlbmd0aD0iMzkiIHg9Ijg4LjUiIHk9IjI5OS4yMDMxIj4mbHQ7amRiYyZndDs8L3RleHQ+PC9nPjwhLS1saW5rIEF1dGggdG8gREItLT48ZyBjbGFzcz0ibGluayIgZGF0YS1lbnRpdHktMT0iQXV0aCIgZGF0YS1lbnRpdHktMj0iREIiIGRhdGEtc291cmNlLWxpbmU9IjI1IiBkYXRhLXVpZD0ibG5rMTEiIGlkPSJsaW5rX0F1dGhfREIiPjxwYXRoIGQ9Ik0zMzcuNjc3NiwyNDguOTI4IEMzMzcuNzI5NSwyNDkuNTgzMiAzMzcuNzgxNywyNTAuMjQyNyAzMzcuODM0MywyNTAuOTA2NSBDMzM4LjI1NSwyNTYuMjE2NiAzMzguNjk3LDI2MS43OTU4IDMzOS4xNTMyLDI2Ny41NTQyIEMzNDAuMDY1NSwyNzkuMDcxMiAzNDEuMDM0NywyOTEuMzA1MyAzNDIuMDAzNywzMDMuNTM4OCBDMzQyLjQ4ODMsMzA5LjY1NTUgMzQyLjk3MjgsMzE1Ljc3MiAzNDMuNDUwMiwzMjEuNzk4NiBDMzQzLjUwOTksMzIyLjU1MiAzNDMuNTY5NCwzMjMuMzAzOSAzNDMuNjI4OCwzMjQuMDU0MiBDMzQzLjY0MzcsMzI0LjI0MTggMzQzLjE4NDgsMzE4LjQ0OCAzNDMuMTk5NiwzMTguNjM1NCIgZmlsbD0ibm9uZSIgaWQ9IkF1dGgtdG8tREIiIHN0eWxlPSJzdHJva2U6IzQ0NzJDNDtzdHJva2Utd2lkdGg6MTsiLz48cG9seWdvbiBmaWxsPSIjNDQ3MkM0IiBwb2ludHM9IjM0My42NzM0LDMyNC42MTY3LDM0Ni45NTAyLDMxNS4zMjg5LDM0My4yNzg2LDMxOS42MzIzLDMzOC45NzUyLDMxNS45NjA3LDM0My42NzM0LDMyNC42MTY3IiBzdHlsZT0ic3Ryb2tlOiM0NDcyQzQ7c3Ryb2tlLXdpZHRoOjE7Ii8+PHRleHQgZmlsbD0iIzAwMDAwMCIgZm9udC1mYW1pbHk9InNhbnMtc2VyaWYiIGZvbnQtc2l6ZT0iMTMiIGxlbmd0aEFkanVzdD0ic3BhY2luZyIgdGV4dExlbmd0aD0iMjYiIHg9IjM0OC41IiB5PSIyODUuMjg5MSI+dXNlczwvdGV4dD48dGV4dCBmaWxsPSIjMDAwMDAwIiBmb250LWZhbWlseT0ic2Fucy1zZXJpZiIgZm9udC1zaXplPSIxMyIgbGVuZ3RoQWRqdXN0PSJzcGFjaW5nIiB0ZXh0TGVuZ3RoPSIzOSIgeD0iMzQyIiB5PSIyOTkuMjAzMSI+Jmx0O2pkYmMmZ3Q7PC90ZXh0PjwvZz48IS0tbGluayBVc2VyIHRvIHNlYXJjaF9pZi0tPjxnIGNsYXNzPSJsaW5rIiBkYXRhLWVudGl0eS0xPSJVc2VyIiBkYXRhLWVudGl0eS0yPSJzZWFyY2hfaWYiIGRhdGEtc291cmNlLWxpbmU9IjI4IiBkYXRhLXVpZD0ibG5rMTMiIGlkPSJsaW5rX1VzZXJfc2VhcmNoX2lmIj48cGF0aCBkPSJNMjY3LjQ0LDUyLjIyIEMyNTkuNjcsMTE4LjMzIDIzNy4wNTEzLDMxMC41NzExIDIyOS4yNjEzLDM3Ni43NjExIiBmaWxsPSJub25lIiBpZD0iVXNlci10by1zZWFyY2hfaWYiIHN0eWxlPSJzdHJva2U6IzQ0NzJDNDtzdHJva2Utd2lkdGg6MTsiLz48cG9seWdvbiBmaWxsPSIjNDQ3MkM0IiBwb2ludHM9IjIyOC41NiwzODIuNzIsMjMzLjU4NDUsMzc0LjI0OTIsMjI5LjE0NDQsMzc3Ljc1NDMsMjI1LjYzOTQsMzczLjMxNDIsMjI4LjU2LDM4Mi43MiIgc3R5bGU9InN0cm9rZTojNDQ3MkM0O3N0cm9rZS13aWR0aDoxOyIvPjx0ZXh0IGZpbGw9IiMwMDAwMDAiIGZvbnQtZmFtaWx5PSJzYW5zLXNlcmlmIiBmb250LXNpemU9IjEzIiBsZW5ndGhBZGp1c3Q9InNwYWNpbmciIHRleHRMZW5ndGg9IjI2IiB4PSIyNjIiIHk9IjIwNy4yODkxIj5IVFRQPC90ZXh0PjwvZz48IS0tbGluayBVc2VyIHRvIGF1dGhfaWYtLT48ZyBjbGFzcz0ibGluayIgZGF0YS1lbnRpdHktMT0iVXNlciIgZGF0YS1lbnRpdHktMj0iYXV0aF9pZiIgZGF0YS1zb3VyY2UtbGluZT0iMjkiIGRhdGEtdWlkPSJsbmsxNCIgaWQ9ImxpbmtfVXNlcl9hdXRoX2lmIj48cGF0aCBkPSJNMzA1LjE0LDUyLjExIEMzMjQuODUsNjUuNTIgMzQ4Ljg1LDg0LjE0IDM2NiwxMDUgQzM4NC41MSwxMjcuNSAzOTYuMTk3OCwxNTIuNzI3IDQwNC4xNDc4LDE3My4xOTciIGZpbGw9Im5vbmUiIGlkPSJVc2VyLXRvLWF1dGhfaWYiIHN0eWxlPSJzdHJva2U6IzQ0NzJDNDtzdHJva2Utd2lkdGg6MTsiLz48cG9seWdvbiBmaWxsPSIjNDQ3MkM0IiBwb2ludHM9IjQwNi4zMiwxNzguNzksNDA2Ljc5MDQsMTY4Ljk1MjQsNDA0LjUwOTksMTc0LjEyOTIsMzk5LjMzMzEsMTcxLjg0ODYsNDA2LjMyLDE3OC43OSIgc3R5bGU9InN0cm9rZTojNDQ3MkM0O3N0cm9rZS13aWR0aDoxOyIvPjx0ZXh0IGZpbGw9IiMwMDAwMDAiIGZvbnQtZmFtaWx5PSJzYW5zLXNlcmlmIiBmb250LXNpemU9IjEzIiBsZW5ndGhBZGp1c3Q9InNwYWNpbmciIHRleHRMZW5ndGg9IjMyLjUiIHg9IjM1OCIgeT0iOTUuMjg5MSI+SFRUUFM8L3RleHQ+PC9nPjwhLS1saW5rIFNlYXJjaCB0byBHTU4xNS0tPjxnIGNsYXNzPSJsaW5rIiBkYXRhLWVudGl0eS0xPSJTZWFyY2giIGRhdGEtZW50aXR5LTI9IkdNTjE1IiBkYXRhLXNvdXJjZS1saW5lPSIzMSIgZGF0YS11aWQ9ImxuazE3IiBpZD0ibGlua19TZWFyY2hfR01OMTUiPjxwYXRoIGQ9Ik0yMS43MTUsMzI0LjkzMjkgQzIxLjk4NjYsMzI0LjE1NTcgMjIuMjY2OCwzMjMuMzgyNiAyMi41NTU4LDMyMi42MTQzIEMyMy43MTIsMzE5LjU0MDggMjUuMDEsMzE2LjU0MjQgMjYuNDY1NSwzMTMuNjUzOSBDMzIuMjg3NSwzMDIuMSA0MC42MywyOTIuMzA1IDUyLjUsMjg2LjUgQzEwNi4yLDI2MC4yNCA1MzQuOTcsMjY0LjM2IDU5MC41LDI4Ni41IEM2NDEuMjYsMzA2Ljc0IDY4My4yOCwzNTguMzUgNzAzLjMzLDM4Ni40OSIgZmlsbD0ibm9uZSIgaWQ9IlNlYXJjaC1HTU4xNSIgc3R5bGU9InN0cm9rZTojNDQ3MkM0O3N0cm9rZS13aWR0aDoxO3N0cm9rZS1kYXNoYXJyYXk6Ny4wLDcuMDsiLz48L2c+PCEtLWxpbmsgR01OMTggdG8gREItLT48ZyBjbGFzcz0ibGluayIgZGF0YS1lbnRpdHktMT0iR01OMTgiIGRhdGEtZW50aXR5LTI9IkRCIiBkYXRhLXNvdXJjZS1saW5lPSIzMiIgZGF0YS11aWQ9ImxuazIwIiBpZD0ibGlua19HTU4xOF9EQiI+PHBhdGggZD0iTTg4My40NiwzODYuMTUgQzg2OC4zOSwzNTguMDUgODM2LjEzLDMwNy4wOSA3OTEuNSwyODYuNSBDNzUwLjY0LDI2Ny42NSA0MjYuOTIsMjY2LjczIDM4Ni41LDI4Ni41IEMzNzQuNjU3NSwyOTIuMjkyNSAzNjYuMzg2MywzMDIuMDgxMyAzNjAuNjU2NywzMTMuNjMyOCBDMzU5LjIyNDMsMzE2LjUyMDcgMzU3Ljk1MDgsMzE5LjUxODggMzU2LjgyMDEsMzIyLjU5MjEgQzM1Ni41Mzc0LDMyMy4zNjA1IDM1Ni4yNjM2LDMyNC4xMzM1IDM1NS45OTg1LDMyNC45MTA3IiBmaWxsPSJub25lIiBpZD0iR01OMTgtREIiIHN0eWxlPSJzdHJva2U6IzQ0NzJDNDtzdHJva2Utd2lkdGg6MTtzdHJva2UtZGFzaGFycmF5OjcuMCw3LjA7Ii8+PC9nPjwhLS1TUkM9W1RMNVRRbkQxNTdzVk5wN0t2dTM4YmMySEdaT25NRjBYYWxoS1ljbXRpcWJpa1hEY0RfSDFYM0hqSE9wc3V6SzdWVDd0SDU5VE92Ri1YTmxfYU1TY1FyZzJCa3BDZE5sa0ZVVC05RmxqazFrT3U0M2sxVTUtcS1YVXQyWmhaWlJvTmpMejhiYjZYRmdXZ3NDTGZfQXJhRDlWWk56U2hOaExpYU1xUUlZSlV6VnpYdHZiN1R3SUNWZW1UdGZVeUs3UFd0Q2hKZk05V2Izdl9yNl82dEFOamRZX0xGNkF1ZXFHanJNanFIVVFLeVA3RENOemRPVnFJejhycDBhVnFzXy1pMlEzSERQTE9DQU13czFkT1BUZ01veWlhaFpOb3RQYThWZkFjU3RYMFZUdndGMmV0SzRib1FoYzFIX3BXQXZlWFpGWjR3SERRU0hsT1B5eG1MOGxwVU1pekxTaVc2c2JMaVdrUUtHX1FJSGYwY0M2cFk2VkVmUUFsLTJld0lIajZiTF96akpIVDlra3M0X3lhVHl2SG5ZNEJNTFB5cHVCZmpyaWZPTERJeDBYVXViQVRrRDdobmZ4dVFQbVhIS1EtWjMtOW9uc3QzV24wckk0U1E4ZnNvUlVKa1h2ZWVvbVhvbVdWSmF4aTNwUHRneFQ4ZGNaa1J5a0hBbko5THJMS2FWdkVaT2FWUU9ueno3cXNFZldUVDJaQW52OEVtd3cwSkpkOG54a25kSXB0Mzc2RDRENTR5SGN6MEZfakdsMjZYT1k3SEt2Wk9lRl9jLUVWT1BLUzZRT3gwYzItcVhQeEVlQ3A3Q1FJdGxtVXgxRW1KRllxcHkwXS0tPjwvZz48L3N2Zz4=;" vertex="1" parent="1">
            <mxGeometry x="10" y="450" width="965" height="458" as="geometry" />
          </mxCell>
        </UserObject>
        <UserObject label="" plantUmlData="{&#xa;  &quot;data&quot;: &quot;@startuml\nskinparam backgroundColor #FFFFFF\nskinparam node {\n  BackgroundColor #EFF4FC\n  BorderColor #5B9BD5\n  ArrowColor #4472C4\n}\n\nnode \&quot;Клиент\&quot; as Client {\n  artifact \&quot;Веб-браузер\&quot; as Browser\n  artifact \&quot;Мобильное приложение\&quot; as Mobile\n}\n\nnode \&quot;Облачный сервер\&quot; as Cloud {\n  artifact \&quot;Nginx\&quot; as Nginx\n  artifact \&quot;API Gateway\&quot; as Gateway\n}\n\nnode \&quot;Сервер БД\&quot; as DBServer {\n  artifact \&quot;PostgreSQL\&quot; as PG\n  artifact \&quot;Redis\&quot; as Redis\n}\n\nClient -- Cloud : HTTPS\nCloud -- DBServer : JDBC\\n192.168.1.100\n\nnote top of Cloud: AWS EC2\\nt3.xlarge\nnote right of DBServer: Репликация RDS\\n10 ГБ RAM\n@enduml&quot;,&#xa;  &quot;format&quot;: &quot;svg&quot;&#xa;}" id="0Xc3_VEsbhBvgeAr-Oqr-3">
          <mxCell style="shape=image;noLabel=1;verticalAlign=top;aspect=fixed;imageAspect=0;image=data:image/svg+xml,PHN2ZyB4bWxucz0iaHR0cDovL3d3dy53My5vcmcvMjAwMC9zdmciIHhtbG5zOnhsaW5rPSJodHRwOi8vd3d3LnczLm9yZy8xOTk5L3hsaW5rIiBjb250ZW50U3R5bGVUeXBlPSJ0ZXh0L2NzcyIgZGF0YS1kaWFncmFtLXR5cGU9IkRFU0NSSVBUSU9OIiBoZWlnaHQ9IjQ4N3B4IiBwcmVzZXJ2ZUFzcGVjdFJhdGlvPSJub25lIiBzdHlsZT0id2lkdGg6NTA5cHg7aGVpZ2h0OjQ4N3B4O2JhY2tncm91bmQ6I0ZGRkZGRjsiIHZlcnNpb249IjEuMSIgdmlld0JveD0iMCAwIDUwOSA0ODciIHdpZHRoPSI1MDlweCIgem9vbUFuZFBhbj0ibWFnbmlmeSI+PGRlZnMvPjxnPjwhLS1jbHVzdGVyIENsaWVudC0tPjxnIGNsYXNzPSJjbHVzdGVyIiBkYXRhLWVudGl0eT0iQ2xpZW50IiBkYXRhLXNvdXJjZS1saW5lPSI4IiBkYXRhLXVpZD0iZW50MDAwMiIgaWQ9ImNsdXN0ZXJfQ2xpZW50Ij48cG9seWdvbiBmaWxsPSIjRUZGNEZDIiBwb2ludHM9IjExMywxNiwxMjMsNiw0OTIsNiw0OTIsMTA0LDQ4MiwxMTQsMTEzLDExNCwxMTMsMTYiIHN0eWxlPSJzdHJva2U6IzVCOUJENTtzdHJva2Utd2lkdGg6MTsiLz48bGluZSBzdHlsZT0ic3Ryb2tlOiM1QjlCRDU7c3Ryb2tlLXdpZHRoOjE7IiB4MT0iNDgyIiB4Mj0iNDkyIiB5MT0iMTYiIHkyPSI2Ii8+PGxpbmUgc3R5bGU9InN0cm9rZTojNUI5QkQ1O3N0cm9rZS13aWR0aDoxOyIgeDE9IjExMyIgeDI9IjQ4MiIgeTE9IjE2IiB5Mj0iMTYiLz48bGluZSBzdHlsZT0ic3Ryb2tlOiM1QjlCRDU7c3Ryb2tlLXdpZHRoOjE7IiB4MT0iNDgyIiB4Mj0iNDgyIiB5MT0iMTYiIHkyPSIxMTQiLz48dGV4dCBmaWxsPSIjMDAwMDAwIiBmb250LWZhbWlseT0ic2Fucy1zZXJpZiIgZm9udC1zaXplPSIxNCIgZm9udC13ZWlnaHQ9ImJvbGQiIGxlbmd0aEFkanVzdD0ic3BhY2luZyIgdGV4dExlbmd0aD0iNDIiIHg9IjI3Ny41IiB5PSIzMi4yMzQ0Ij4mIzEwNTA7JiMxMDgzOyYjMTA4MDsmIzEwNzc7JiMxMDg1OyYjMTA5MDs8L3RleHQ+PC9nPjwhLS1jbHVzdGVyIENsb3VkLS0+PGcgY2xhc3M9ImNsdXN0ZXIiIGRhdGEtZW50aXR5PSJDbG91ZCIgZGF0YS1zb3VyY2UtbGluZT0iMTMiIGRhdGEtdWlkPSJlbnQwMDA1IiBpZD0iY2x1c3Rlcl9DbG91ZCI+PHBvbHlnb24gZmlsbD0iI0VGRjRGQyIgcG9pbnRzPSI3MSwxODcsODEsMTc3LDM0NiwxNzcsMzQ2LDI3NSwzMzYsMjg1LDcxLDI4NSw3MSwxODciIHN0eWxlPSJzdHJva2U6IzVCOUJENTtzdHJva2Utd2lkdGg6MTsiLz48bGluZSBzdHlsZT0ic3Ryb2tlOiM1QjlCRDU7c3Ryb2tlLXdpZHRoOjE7IiB4MT0iMzM2IiB4Mj0iMzQ2IiB5MT0iMTg3IiB5Mj0iMTc3Ii8+PGxpbmUgc3R5bGU9InN0cm9rZTojNUI5QkQ1O3N0cm9rZS13aWR0aDoxOyIgeDE9IjcxIiB4Mj0iMzM2IiB5MT0iMTg3IiB5Mj0iMTg3Ii8+PGxpbmUgc3R5bGU9InN0cm9rZTojNUI5QkQ1O3N0cm9rZS13aWR0aDoxOyIgeDE9IjMzNiIgeDI9IjMzNiIgeTE9IjE4NyIgeTI9IjI4NSIvPjx0ZXh0IGZpbGw9IiMwMDAwMDAiIGZvbnQtZmFtaWx5PSJzYW5zLXNlcmlmIiBmb250LXNpemU9IjE0IiBmb250LXdlaWdodD0iYm9sZCIgbGVuZ3RoQWRqdXN0PSJzcGFjaW5nIiB0ZXh0TGVuZ3RoPSIxMDUiIHg9IjE1MiIgeT0iMjAzLjIzNDQiPiYjMTA1NDsmIzEwNzM7JiMxMDgzOyYjMTA3MjsmIzEwOTU7JiMxMDg1OyYjMTA5OTsmIzEwODE7ICYjMTA4OTsmIzEwNzc7JiMxMDg4OyYjMTA3NDsmIzEwNzc7JiMxMDg4OzwvdGV4dD48L2c+PCEtLWNsdXN0ZXIgREJTZXJ2ZXItLT48ZyBjbGFzcz0iY2x1c3RlciIgZGF0YS1lbnRpdHk9IkRCU2VydmVyIiBkYXRhLXNvdXJjZS1saW5lPSIxOCIgZGF0YS11aWQ9ImVudDAwMDgiIGlkPSJjbHVzdGVyX0RCU2VydmVyIj48cG9seWdvbiBmaWxsPSIjRUZGNEZDIiBwb2ludHM9IjcxLDM3Miw4MSwzNjIsMzM5LDM2MiwzMzksNDYwLDMyOSw0NzAsNzEsNDcwLDcxLDM3MiIgc3R5bGU9InN0cm9rZTojNUI5QkQ1O3N0cm9rZS13aWR0aDoxOyIvPjxsaW5lIHN0eWxlPSJzdHJva2U6IzVCOUJENTtzdHJva2Utd2lkdGg6MTsiIHgxPSIzMjkiIHgyPSIzMzkiIHkxPSIzNzIiIHkyPSIzNjIiLz48bGluZSBzdHlsZT0ic3Ryb2tlOiM1QjlCRDU7c3Ryb2tlLXdpZHRoOjE7IiB4MT0iNzEiIHgyPSIzMjkiIHkxPSIzNzIiIHkyPSIzNzIiLz48bGluZSBzdHlsZT0ic3Ryb2tlOiM1QjlCRDU7c3Ryb2tlLXdpZHRoOjE7IiB4MT0iMzI5IiB4Mj0iMzI5IiB5MT0iMzcyIiB5Mj0iNDcwIi8+PHRleHQgZmlsbD0iIzAwMDAwMCIgZm9udC1mYW1pbHk9InNhbnMtc2VyaWYiIGZvbnQtc2l6ZT0iMTQiIGZvbnQtd2VpZ2h0PSJib2xkIiBsZW5ndGhBZGp1c3Q9InNwYWNpbmciIHRleHRMZW5ndGg9IjYzIiB4PSIxNjkuNSIgeT0iMzg4LjIzNDQiPiYjMTA1NzsmIzEwNzc7JiMxMDg4OyYjMTA3NDsmIzEwNzc7JiMxMDg4OyAmIzEwNDE7JiMxMDQ0OzwvdGV4dD48L2c+PCEtLWVudGl0eSBCcm93c2VyLS0+PGcgY2xhc3M9ImVudGl0eSIgZGF0YS1lbnRpdHk9IkJyb3dzZXIiIGRhdGEtc291cmNlLWxpbmU9IjkiIGRhdGEtdWlkPSJlbnQwMDAzIiBpZD0iZW50aXR5X0Jyb3dzZXIiPjxyZWN0IGZpbGw9IiNGMUYxRjEiIGhlaWdodD0iMzcuOTg0NCIgcng9IjIuNSIgcnk9IjIuNSIgc3R5bGU9InN0cm9rZTojMTgxODE4O3N0cm9rZS13aWR0aDowLjU7IiB3aWR0aD0iMTA3IiB4PSIzNjEuNSIgeT0iNTIiLz48cG9seWdvbiBmaWxsPSIjRjFGMUYxIiBwb2ludHM9IjQ1MS41LDU3LDQ1MS41LDcxLDQ2My41LDcxLDQ2My41LDYzLDQ1Ny41LDU3LDQ1MS41LDU3IiBzdHlsZT0ic3Ryb2tlOiMxODE4MTg7c3Ryb2tlLXdpZHRoOjAuNTsiLz48bGluZSBzdHlsZT0ic3Ryb2tlOiMxODE4MTg7c3Ryb2tlLXdpZHRoOjAuNTsiIHgxPSI0NTcuNSIgeDI9IjQ1Ny41IiB5MT0iNTciIHkyPSI2MyIvPjxsaW5lIHN0eWxlPSJzdHJva2U6IzE4MTgxODtzdHJva2Utd2lkdGg6MC41OyIgeDE9IjQ2My41IiB4Mj0iNDU3LjUiIHkxPSI2MyIgeTI9IjYzIi8+PHRleHQgZmlsbD0iIzAwMDAwMCIgZm9udC1mYW1pbHk9InNhbnMtc2VyaWYiIGZvbnQtc2l6ZT0iMTQiIGxlbmd0aEFkanVzdD0ic3BhY2luZyIgdGV4dExlbmd0aD0iNzciIHg9IjM3MS41IiB5PSI3OC4yMzQ0Ij4mIzEwNDI7JiMxMDc3OyYjMTA3MzstJiMxMDczOyYjMTA4ODsmIzEwNzI7JiMxMDkxOyYjMTA3OTsmIzEwNzc7JiMxMDg4OzwvdGV4dD48L2c+PCEtLWVudGl0eSBNb2JpbGUtLT48ZyBjbGFzcz0iZW50aXR5IiBkYXRhLWVudGl0eT0iTW9iaWxlIiBkYXRhLXNvdXJjZS1saW5lPSIxMCIgZGF0YS11aWQ9ImVudDAwMDQiIGlkPSJlbnRpdHlfTW9iaWxlIj48cmVjdCBmaWxsPSIjRjFGMUYxIiBoZWlnaHQ9IjM3Ljk4NDQiIHJ4PSIyLjUiIHJ5PSIyLjUiIHN0eWxlPSJzdHJva2U6IzE4MTgxODtzdHJva2Utd2lkdGg6MC41OyIgd2lkdGg9IjE3MCIgeD0iMTU2IiB5PSI1MiIvPjxwb2x5Z29uIGZpbGw9IiNGMUYxRjEiIHBvaW50cz0iMzA5LDU3LDMwOSw3MSwzMjEsNzEsMzIxLDYzLDMxNSw1NywzMDksNTciIHN0eWxlPSJzdHJva2U6IzE4MTgxODtzdHJva2Utd2lkdGg6MC41OyIvPjxsaW5lIHN0eWxlPSJzdHJva2U6IzE4MTgxODtzdHJva2Utd2lkdGg6MC41OyIgeDE9IjMxNSIgeDI9IjMxNSIgeTE9IjU3IiB5Mj0iNjMiLz48bGluZSBzdHlsZT0ic3Ryb2tlOiMxODE4MTg7c3Ryb2tlLXdpZHRoOjAuNTsiIHgxPSIzMjEiIHgyPSIzMTUiIHkxPSI2MyIgeTI9IjYzIi8+PHRleHQgZmlsbD0iIzAwMDAwMCIgZm9udC1mYW1pbHk9InNhbnMtc2VyaWYiIGZvbnQtc2l6ZT0iMTQiIGxlbmd0aEFkanVzdD0ic3BhY2luZyIgdGV4dExlbmd0aD0iMTQwIiB4PSIxNjYiIHk9Ijc4LjIzNDQiPiYjMTA1MjsmIzEwODY7JiMxMDczOyYjMTA4MDsmIzEwODM7JiMxMTAwOyYjMTA4NTsmIzEwODY7JiMxMDc3OyAmIzEwODc7JiMxMDg4OyYjMTA4MDsmIzEwODM7JiMxMDg2OyYjMTA3ODsmIzEwNzc7JiMxMDg1OyYjMTA4MDsmIzEwNzc7PC90ZXh0PjwvZz48IS0tZW50aXR5IE5naW54LS0+PGcgY2xhc3M9ImVudGl0eSIgZGF0YS1lbnRpdHk9Ik5naW54IiBkYXRhLXNvdXJjZS1saW5lPSIxNCIgZGF0YS11aWQ9ImVudDAwMDYiIGlkPSJlbnRpdHlfTmdpbngiPjxyZWN0IGZpbGw9IiNGMUYxRjEiIGhlaWdodD0iMzcuOTg0NCIgcng9IjIuNSIgcnk9IjIuNSIgc3R5bGU9InN0cm9rZTojMTgxODE4O3N0cm9rZS13aWR0aDowLjU7IiB3aWR0aD0iNjUiIHg9IjI1Ni41IiB5PSIyMjMiLz48cG9seWdvbiBmaWxsPSIjRjFGMUYxIiBwb2ludHM9IjMwNC41LDIyOCwzMDQuNSwyNDIsMzE2LjUsMjQyLDMxNi41LDIzNCwzMTAuNSwyMjgsMzA0LjUsMjI4IiBzdHlsZT0ic3Ryb2tlOiMxODE4MTg7c3Ryb2tlLXdpZHRoOjAuNTsiLz48bGluZSBzdHlsZT0ic3Ryb2tlOiMxODE4MTg7c3Ryb2tlLXdpZHRoOjAuNTsiIHgxPSIzMTAuNSIgeDI9IjMxMC41IiB5MT0iMjI4IiB5Mj0iMjM0Ii8+PGxpbmUgc3R5bGU9InN0cm9rZTojMTgxODE4O3N0cm9rZS13aWR0aDowLjU7IiB4MT0iMzE2LjUiIHgyPSIzMTAuNSIgeTE9IjIzNCIgeTI9IjIzNCIvPjx0ZXh0IGZpbGw9IiMwMDAwMDAiIGZvbnQtZmFtaWx5PSJzYW5zLXNlcmlmIiBmb250LXNpemU9IjE0IiBsZW5ndGhBZGp1c3Q9InNwYWNpbmciIHRleHRMZW5ndGg9IjM1IiB4PSIyNjYuNSIgeT0iMjQ5LjIzNDQiPk5naW54PC90ZXh0PjwvZz48IS0tZW50aXR5IEdhdGV3YXktLT48ZyBjbGFzcz0iZW50aXR5IiBkYXRhLWVudGl0eT0iR2F0ZXdheSIgZGF0YS1zb3VyY2UtbGluZT0iMTUiIGRhdGEtdWlkPSJlbnQwMDA3IiBpZD0iZW50aXR5X0dhdGV3YXkiPjxyZWN0IGZpbGw9IiNGMUYxRjEiIGhlaWdodD0iMzcuOTg0NCIgcng9IjIuNSIgcnk9IjIuNSIgc3R5bGU9InN0cm9rZTojMTgxODE4O3N0cm9rZS13aWR0aDowLjU7IiB3aWR0aD0iMTA3IiB4PSIxMTQuNSIgeT0iMjIzIi8+PHBvbHlnb24gZmlsbD0iI0YxRjFGMSIgcG9pbnRzPSIyMDQuNSwyMjgsMjA0LjUsMjQyLDIxNi41LDI0MiwyMTYuNSwyMzQsMjEwLjUsMjI4LDIwNC41LDIyOCIgc3R5bGU9InN0cm9rZTojMTgxODE4O3N0cm9rZS13aWR0aDowLjU7Ii8+PGxpbmUgc3R5bGU9InN0cm9rZTojMTgxODE4O3N0cm9rZS13aWR0aDowLjU7IiB4MT0iMjEwLjUiIHgyPSIyMTAuNSIgeTE9IjIyOCIgeTI9IjIzNCIvPjxsaW5lIHN0eWxlPSJzdHJva2U6IzE4MTgxODtzdHJva2Utd2lkdGg6MC41OyIgeDE9IjIxNi41IiB4Mj0iMjEwLjUiIHkxPSIyMzQiIHkyPSIyMzQiLz48dGV4dCBmaWxsPSIjMDAwMDAwIiBmb250LWZhbWlseT0ic2Fucy1zZXJpZiIgZm9udC1zaXplPSIxNCIgbGVuZ3RoQWRqdXN0PSJzcGFjaW5nIiB0ZXh0TGVuZ3RoPSI3NyIgeD0iMTI0LjUiIHk9IjI0OS4yMzQ0Ij5BUEkgR2F0ZXdheTwvdGV4dD48L2c+PCEtLWVudGl0eSBQRy0tPjxnIGNsYXNzPSJlbnRpdHkiIGRhdGEtZW50aXR5PSJQRyIgZGF0YS1zb3VyY2UtbGluZT0iMTkiIGRhdGEtdWlkPSJlbnQwMDA5IiBpZD0iZW50aXR5X1BHIj48cmVjdCBmaWxsPSIjRjFGMUYxIiBoZWlnaHQ9IjM3Ljk4NDQiIHJ4PSIyLjUiIHJ5PSIyLjUiIHN0eWxlPSJzdHJva2U6IzE4MTgxODtzdHJva2Utd2lkdGg6MC41OyIgd2lkdGg9IjEwMCIgeD0iMjE1IiB5PSI0MDgiLz48cG9seWdvbiBmaWxsPSIjRjFGMUYxIiBwb2ludHM9IjI5OCw0MTMsMjk4LDQyNywzMTAsNDI3LDMxMCw0MTksMzA0LDQxMywyOTgsNDEzIiBzdHlsZT0ic3Ryb2tlOiMxODE4MTg7c3Ryb2tlLXdpZHRoOjAuNTsiLz48bGluZSBzdHlsZT0ic3Ryb2tlOiMxODE4MTg7c3Ryb2tlLXdpZHRoOjAuNTsiIHgxPSIzMDQiIHgyPSIzMDQiIHkxPSI0MTMiIHkyPSI0MTkiLz48bGluZSBzdHlsZT0ic3Ryb2tlOiMxODE4MTg7c3Ryb2tlLXdpZHRoOjAuNTsiIHgxPSIzMTAiIHgyPSIzMDQiIHkxPSI0MTkiIHkyPSI0MTkiLz48dGV4dCBmaWxsPSIjMDAwMDAwIiBmb250LWZhbWlseT0ic2Fucy1zZXJpZiIgZm9udC1zaXplPSIxNCIgbGVuZ3RoQWRqdXN0PSJzcGFjaW5nIiB0ZXh0TGVuZ3RoPSI3MCIgeD0iMjI1IiB5PSI0MzQuMjM0NCI+UG9zdGdyZVNRTDwvdGV4dD48L2c+PCEtLWVudGl0eSBSZWRpcy0tPjxnIGNsYXNzPSJlbnRpdHkiIGRhdGEtZW50aXR5PSJSZWRpcyIgZGF0YS1zb3VyY2UtbGluZT0iMjAiIGRhdGEtdWlkPSJlbnQwMDEwIiBpZD0iZW50aXR5X1JlZGlzIj48cmVjdCBmaWxsPSIjRjFGMUYxIiBoZWlnaHQ9IjM3Ljk4NDQiIHJ4PSIyLjUiIHJ5PSIyLjUiIHN0eWxlPSJzdHJva2U6IzE4MTgxODtzdHJva2Utd2lkdGg6MC41OyIgd2lkdGg9IjY1IiB4PSIxMTQuNSIgeT0iNDA4Ii8+PHBvbHlnb24gZmlsbD0iI0YxRjFGMSIgcG9pbnRzPSIxNjIuNSw0MTMsMTYyLjUsNDI3LDE3NC41LDQyNywxNzQuNSw0MTksMTY4LjUsNDEzLDE2Mi41LDQxMyIgc3R5bGU9InN0cm9rZTojMTgxODE4O3N0cm9rZS13aWR0aDowLjU7Ii8+PGxpbmUgc3R5bGU9InN0cm9rZTojMTgxODE4O3N0cm9rZS13aWR0aDowLjU7IiB4MT0iMTY4LjUiIHgyPSIxNjguNSIgeTE9IjQxMyIgeTI9IjQxOSIvPjxsaW5lIHN0eWxlPSJzdHJva2U6IzE4MTgxODtzdHJva2Utd2lkdGg6MC41OyIgeDE9IjE3NC41IiB4Mj0iMTY4LjUiIHkxPSI0MTkiIHkyPSI0MTkiLz48dGV4dCBmaWxsPSIjMDAwMDAwIiBmb250LWZhbWlseT0ic2Fucy1zZXJpZiIgZm9udC1zaXplPSIxNCIgbGVuZ3RoQWRqdXN0PSJzcGFjaW5nIiB0ZXh0TGVuZ3RoPSIzNSIgeD0iMTI0LjUiIHk9IjQzNC4yMzQ0Ij5SZWRpczwvdGV4dD48L2c+PGcgY2xhc3M9ImVudGl0eSIgZGF0YS1lbnRpdHk9IkdNTjEzIiBkYXRhLXNvdXJjZS1saW5lPSIyNiIgZGF0YS11aWQ9ImVudDAwMTQiIGlkPSJlbnRpdHlfR01OMTMiPjxwYXRoIGQ9Ik02LDUyIEw2LDg5LjgyODEgTDg1LjUsODkuODI4MSBMODUuNSw2MiBMNzUuNSw1MiBMNiw1MiIgZmlsbD0iI0ZFRkZERCIgc3R5bGU9InN0cm9rZTojMTgxODE4O3N0cm9rZS13aWR0aDowLjU7Ii8+PHBhdGggZD0iTTc1LjUsNTIgTDc1LjUsNjIgTDg1LjUsNjIgTDc1LjUsNTIiIGZpbGw9IiNGRUZGREQiIHN0eWxlPSJzdHJva2U6IzE4MTgxODtzdHJva2Utd2lkdGg6MTsiLz48dGV4dCBmaWxsPSIjMDAwMDAwIiBmb250LWZhbWlseT0ic2Fucy1zZXJpZiIgZm9udC1zaXplPSIxMyIgbGVuZ3RoQWRqdXN0PSJzcGFjaW5nIiB0ZXh0TGVuZ3RoPSI0NS41IiB4PSIxMiIgeT0iNjkuMjg5MSI+QVdTIEVDMjwvdGV4dD48dGV4dCBmaWxsPSIjMDAwMDAwIiBmb250LWZhbWlseT0ic2Fucy1zZXJpZiIgZm9udC1zaXplPSIxMyIgbGVuZ3RoQWRqdXN0PSJzcGFjaW5nIiB0ZXh0TGVuZ3RoPSI1OC41IiB4PSIxMiIgeT0iODMuMjAzMSI+dDMueGxhcmdlPC90ZXh0PjwvZz48ZyBjbGFzcz0iZW50aXR5IiBkYXRhLWVudGl0eT0iR01OMTYiIGRhdGEtc291cmNlLWxpbmU9IjI3IiBkYXRhLXVpZD0iZW50MDAxNyIgaWQ9ImVudGl0eV9HTU4xNiI+PHBhdGggZD0iTTM2Myw0MDggTDM2Myw0NDUuODI4MSBMNDc1LDQ0NS44MjgxIEw0NzUsNDE4IEw0NjUsNDA4IEwzNjMsNDA4IiBmaWxsPSIjRkVGRkREIiBzdHlsZT0ic3Ryb2tlOiMxODE4MTg7c3Ryb2tlLXdpZHRoOjAuNTsiLz48cGF0aCBkPSJNNDY1LDQwOCBMNDY1LDQxOCBMNDc1LDQxOCBMNDY1LDQwOCIgZmlsbD0iI0ZFRkZERCIgc3R5bGU9InN0cm9rZTojMTgxODE4O3N0cm9rZS13aWR0aDoxOyIvPjx0ZXh0IGZpbGw9IiMwMDAwMDAiIGZvbnQtZmFtaWx5PSJzYW5zLXNlcmlmIiBmb250LXNpemU9IjEzIiBsZW5ndGhBZGp1c3Q9InNwYWNpbmciIHRleHRMZW5ndGg9IjkxIiB4PSIzNjkiIHk9IjQyNS4yODkxIj4mIzEwNTY7JiMxMDc3OyYjMTA4NzsmIzEwODM7JiMxMDgwOyYjMTA4MjsmIzEwNzI7JiMxMDk0OyYjMTA4MDsmIzExMDM7IFJEUzwvdGV4dD48dGV4dCBmaWxsPSIjMDAwMDAwIiBmb250LWZhbWlseT0ic2Fucy1zZXJpZiIgZm9udC1zaXplPSIxMyIgbGVuZ3RoQWRqdXN0PSJzcGFjaW5nIiB0ZXh0TGVuZ3RoPSI1OC41IiB4PSIzNjkiIHk9IjQzOS4yMDMxIj4xMCAmIzEwNDM7JiMxMDQxOyBSQU08L3RleHQ+PC9nPjwhLS1saW5rIENsaWVudCB0byBDbG91ZC0tPjxnIGNsYXNzPSJsaW5rIiBkYXRhLWVudGl0eS0xPSJDbGllbnQiIGRhdGEtZW50aXR5LTI9IkNsb3VkIiBkYXRhLXNvdXJjZS1saW5lPSIyMyIgZGF0YS11aWQ9ImxuazExIiBpZD0ibGlua19DbGllbnRfQ2xvdWQiPjxwYXRoIGQ9Ik0xMTIuOTM2NywxMDQuNDQ3NCBDMTEyLjgwODMsMTA0Ljk2MzkgMTEyLjY3ODksMTA1LjQ4NDYgMTEyLjU0ODUsMTA2LjAwOTUgQzExMi4wMjY3LDEwOC4xMDg5IDExMS40ODg2LDExMC4yNzQgMTEwLjkzNjYsMTEyLjQ5NTQgQzEwOS44MzI0LDExNi45MzgxIDEwOC42NzIzLDEyMS42MDU5IDEwNy40NzQ5LDEyNi40MjM4IEMxMDUuMDgwMiwxMzYuMDU5NCAxMDIuNTM2MywxNDYuMjk1IDk5Ljk5MjUsMTU2LjUzIEM5OC43MjA2LDE2MS42NDc1IDk3LjQ0ODgsMTY2Ljc2NDggOTYuMTk1NywxNzEuODA3IEM5NS44ODI0LDE3My4wNjc1IDk1LjU3MDMsMTc0LjMyMzMgOTUuMjU5NiwxNzUuNTczMyBDOTUuMTgxOSwxNzUuODg1NyA5NS4xMDQ0LDE3Ni4xOTc5IDk1LjAyNjksMTc2LjUwOTYgQzk0Ljk4ODIsMTc2LjY2NTUgOTQuOTQ5NCwxNzYuODIxMiA5NC45MTA3LDE3Ni45NzY5IiBmaWxsPSJub25lIiBpZD0iQ2xpZW50LUNsb3VkIiBzdHlsZT0ic3Ryb2tlOiMxODE4MTg7c3Ryb2tlLXdpZHRoOjE7Ii8+PHRleHQgZmlsbD0iIzAwMDAwMCIgZm9udC1mYW1pbHk9InNhbnMtc2VyaWYiIGZvbnQtc2l6ZT0iMTMiIGxlbmd0aEFkanVzdD0ic3BhY2luZyIgdGV4dExlbmd0aD0iMzIuNSIgeD0iMTA0IiB5PSIxNTEuMjg5MSI+SFRUUFM8L3RleHQ+PC9nPjwhLS1saW5rIENsb3VkIHRvIERCU2VydmVyLS0+PGcgY2xhc3M9ImxpbmsiIGRhdGEtZW50aXR5LTE9IkNsb3VkIiBkYXRhLWVudGl0eS0yPSJEQlNlcnZlciIgZGF0YS1zb3VyY2UtbGluZT0iMjQiIGRhdGEtdWlkPSJsbmsxMiIgaWQ9ImxpbmtfQ2xvdWRfREJTZXJ2ZXIiPjxwYXRoIGQ9Ik03OSwyODUuMDU4OSBDNzksMjg1LjY1MjUgNzksMjg2LjI1IDc5LDI4Ni44NTE0IEM3OSwyOTEuNjYyMSA3OSwyOTYuNzE2NyA3OSwzMDEuOTMzNiBDNzksMzEyLjM2NzQgNzksMzIzLjQ1MDkgNzksMzM0LjUzMzggQzc5LDM0MC4wNzUyIDc5LDM0NS42MTY0IDc5LDM1MS4wNzYxIEM3OSwzNTMuODA2IDc5LDM1Ni41MTU1IDc5LDM1OS4xOTQ1IEM3OSwzNTkuODY0MyA3OSwzNjAuNTMyMSA3OSwzNjEuMTk3OSBDNzksMzYxLjM2NDMgNzksMzYxLjUzMDYgNzksMzYxLjY5NjgiIGZpbGw9Im5vbmUiIGlkPSJDbG91ZC1EQlNlcnZlciIgc3R5bGU9InN0cm9rZTojMTgxODE4O3N0cm9rZS13aWR0aDoxOyIvPjx0ZXh0IGZpbGw9IiMwMDAwMDAiIGZvbnQtZmFtaWx5PSJzYW5zLXNlcmlmIiBmb250LXNpemU9IjEzIiBsZW5ndGhBZGp1c3Q9InNwYWNpbmciIHRleHRMZW5ndGg9IjI2IiB4PSIxMDkuMjUiIHk9IjMyMi4yODkxIj5KREJDPC90ZXh0Pjx0ZXh0IGZpbGw9IiMwMDAwMDAiIGZvbnQtZmFtaWx5PSJzYW5zLXNlcmlmIiBmb250LXNpemU9IjEzIiBsZW5ndGhBZGp1c3Q9InNwYWNpbmciIHRleHRMZW5ndGg9Ijg0LjUiIHg9IjgwIiB5PSIzMzYuMjAzMSI+MTkyLjE2OC4xLjEwMDwvdGV4dD48L2c+PCEtLWxpbmsgR01OMTMgdG8gQ2xvdWQtLT48ZyBjbGFzcz0ibGluayIgZGF0YS1lbnRpdHktMT0iR01OMTMiIGRhdGEtZW50aXR5LTI9IkNsb3VkIiBkYXRhLXNvdXJjZS1saW5lPSIyNiIgZGF0YS11aWQ9ImxuazE1IiBpZD0ibGlua19HTU4xM19DbG91ZCI+PHBhdGggZD0iTTQ5LjUzLDkwLjA5IEM1My43MiwxMTEuNTQ1IDYwLjkyNSwxNDguNDM3NSA2Ny4xNjEzLDE4MC4zNzM4IEM2Ny45NDA4LDE4NC4zNjU4IDY4LjcwNTIsMTg4LjI4MDQgNjkuNDQ2NywxOTIuMDc3NyBDNjkuODE3NCwxOTMuOTc2MyA3MC4xODI0LDE5NS44NDU3IDcwLjU0MDcsMTk3LjY4MDcgQzcwLjYzMDMsMTk4LjEzOTUgNzAuNzE5NCwxOTguNTk2MSA3MC44MDgyLDE5OS4wNTA1IEM3MC44NTI1LDE5OS4yNzc3IDcwLjg5NjgsMTk5LjUwNDMgNzAuOTQwOSwxOTkuNzMwNCIgZmlsbD0ibm9uZSIgaWQ9IkdNTjEzLUNsb3VkIiBzdHlsZT0ic3Ryb2tlOiMxODE4MTg7c3Ryb2tlLXdpZHRoOjE7c3Ryb2tlLWRhc2hhcnJheTo3LjAsNy4wOyIvPjwvZz48IS0tbGluayBEQlNlcnZlciB0byBHTU4xNi0tPjxnIGNsYXNzPSJsaW5rIiBkYXRhLWVudGl0eS0xPSJEQlNlcnZlciIgZGF0YS1lbnRpdHktMj0iR01OMTYiIGRhdGEtc291cmNlLWxpbmU9IjI3IiBkYXRhLXVpZD0ibG5rMTgiIGlkPSJsaW5rX0RCU2VydmVyX0dNTjE2Ij48cGF0aCBkPSJNODUuOTUyMiwzNjEuNjQ4OSBDODYuMDA5NiwzNjEuNDc2NSA4Ni4wNjc0LDM2MS4zMDQyIDg2LjEyNTYsMzYxLjEzMjEgQzg2LjM1ODYsMzYwLjQ0MzYgODYuNTk4NSwzNTkuNzU3OCA4Ni44NDU0LDM1OS4wNzUgQzg3LjMzOTQsMzU3LjcwOTUgODcuODYxNywzNTYuMzU2MiA4OC40MTM5LDM1NS4wMTkxIEM4OS41MTgzLDM1Mi4zNDQ4IDkwLjc0MjUsMzQ5LjczNDggOTIuMDk4NiwzNDcuMjE5NCBDOTcuNTIzMSwzMzcuMTU3NSAxMDUuMDYsMzI4LjYwNzUgMTE1LjUsMzIzLjUgQzE1NS4wMywzMDQuMTcgMjcyLjc3LDMwNi44NiAzMTMuNSwzMjMuNSBDMzU1LjMsMzQwLjU4IDM4OS40OSwzODMuMSA0MDYuNzgsNDA4IiBmaWxsPSJub25lIiBpZD0iREJTZXJ2ZXItR01OMTYiIHN0eWxlPSJzdHJva2U6IzE4MTgxODtzdHJva2Utd2lkdGg6MTtzdHJva2UtZGFzaGFycmF5OjcuMCw3LjA7Ii8+PC9nPjwhLS1TUkM9W05QN0RKaTkwNDgzbFZPZTlkWTYwZUNBRGJYeXJRZjJJVUY2b3NoS3NyQXhQaGU4bjlnWTk3WkduX2ZvQ0NWZTZPZTlfMTdjNXdIa3ZOSWVBRlN0RVYzRlZQRWV0NzYtTlNCODM2c0lwT05Fc3ZyYTZTbmM3Z1JCd0Q3ejRVQ29ZU0FXMXc5RGVnTHBFYjhzbW1oWDVVUEpEd1pjemM5TlAwa1VpNklLcGNUY3FhVDZFRDRzRFktNHp6bDAza3pXRkpjOTBWMzFTWHRmMlVHV05wWFJQNTlBd2FLR2RaZnNXWklfMUFSdlpEc1doTjlVWlZTaDd3R1Z5bmV3U3NXaWtpSV9aQmsxMFRpZzRWQm81aWIyZi1mVlBYa0ZJVl9peW9pd1ViOXBCWkl4bTR1QlpxOE1sOHdGWGlacmhPaHlMc181UWdnZ1lpTGdYa1cwTDhjWUo3MldZWWx5ZmRfeUNXRFR1ZngyWVJiQS1KX2M0Z1NmeU9ORGdoWXVmZ2JlUGd6UWV2VllnZUFCRzRUcXA3ZXlNcHlEeWxMdXJqVTVCZmFVWUYybU1UTUZUSS1OSVlUSkNOMkFMSTJNSnVQQTJXYzJ4bUJRNjhfOUdNM0VYUEFKTkZKNlRRQmM0c3RIOFNTVlU1WTd0RXBDRi0ySkZGTDNfLTRqVXpHbV9XWWtlNUtzZklHQlV1Wk5LMmlpX10tLT48L2c+PC9zdmc+;" vertex="1" parent="1">
            <mxGeometry x="30" y="950" width="509" height="487" as="geometry" />
          </mxCell>
        </UserObject>
        <mxCell id="0Xc3_VEsbhBvgeAr-Oqr-5" value="&lt;h3&gt;Sequence Diagram&lt;/h3&gt;" style="text;html=1;align=center;verticalAlign=middle;whiteSpace=wrap;rounded=0;" vertex="1" parent="1">
          <mxGeometry x="40" y="-40" width="430" height="30" as="geometry" />
        </mxCell>
        <mxCell id="0Xc3_VEsbhBvgeAr-Oqr-6" value="&lt;h3&gt;Component Diagram&lt;/h3&gt;" style="text;html=1;align=center;verticalAlign=middle;whiteSpace=wrap;rounded=0;" vertex="1" parent="1">
          <mxGeometry x="90" y="410" width="810" height="30" as="geometry" />
        </mxCell>
        <mxCell id="0Xc3_VEsbhBvgeAr-Oqr-7" value="&lt;h3&gt;Deployment Diagram &lt;/h3&gt;" style="text;html=1;align=center;verticalAlign=middle;whiteSpace=wrap;rounded=0;" vertex="1" parent="1">
          <mxGeometry x="60" y="920" width="440" height="30" as="geometry" />
        </mxCell>
      </root>
    </mxGraphModel>
  </diagram>
</mxfile>
